<?xml version="1.0" standalone="no"?>
<!DOCTYPE svg PUBLIC "-//W3C//DTD SVG 20010904//EN"
 "http://www.w3.org/TR/2001/REC-SVG-20010904/DTD/svg10.dtd">
<svg version="1.0" xmlns="http://www.w3.org/2000/svg"
 width="938.000000pt" height="938.000000pt" viewBox="0 0 938.000000 938.000000"
 preserveAspectRatio="xMidYMid meet">
<metadata>
Created by potrace 1.14, written by Peter Selinger 2001-2017
</metadata>
<g transform="translate(0.000000,938.000000) scale(0.100000,-0.100000)"
fill="#000000" stroke="none">
<path d="M4489 8496 c-2 -2 -44 -7 -94 -10 -49 -4 -103 -9 -120 -11 -16 -3
-52 -7 -78 -10 -27 -3 -52 -7 -55 -9 -4 -2 -25 -7 -47 -10 -39 -6 -63 -11
-115 -22 -14 -3 -38 -8 -55 -11 -16 -3 -38 -9 -47 -14 -10 -5 -18 -7 -18 -5 0
3 -18 -1 -40 -9 -22 -8 -40 -12 -40 -10 0 2 -29 -7 -65 -20 -36 -13 -65 -21
-65 -18 0 3 -7 0 -15 -7 -8 -7 -15 -10 -15 -6 0 4 -13 0 -29 -9 -17 -8 -38
-17 -48 -18 -10 -2 -29 -9 -43 -14 -14 -6 -61 -26 -105 -44 -91 -38 -357 -172
-397 -200 -14 -11 -29 -19 -32 -19 -4 0 -12 -5 -19 -10 -7 -6 -62 -44 -124
-85 -62 -41 -120 -81 -130 -89 -10 -8 -45 -37 -78 -63 -206 -165 -411 -373
-558 -568 -4 -5 -17 -21 -28 -35 -37 -44 -189 -276 -189 -288 0 -7 -4 -12 -9
-12 -10 0 -189 -355 -221 -440 -35 -90 -82 -223 -85 -239 -2 -9 -10 -35 -19
-59 -8 -23 -16 -46 -17 -50 -1 -4 -3 -11 -4 -17 -15 -54 -35 -136 -39 -160 -3
-16 -7 -41 -11 -55 -9 -42 -25 -133 -31 -180 -2 -19 -6 -46 -9 -60 -11 -62
-22 -208 -26 -348 -1 -40 -5 -75 -10 -78 -7 -4 -34 -5 -89 -3 -8 0 -33 0 -55
0 -22 0 -47 0 -55 0 -8 0 -42 0 -75 0 -33 0 -67 0 -75 0 -290 -2 -513 -89
-715 -280 -30 -29 -55 -56 -55 -62 0 -5 -4 -9 -8 -9 -13 0 -87 -110 -125 -186
-40 -79 -85 -206 -90 -256 -2 -19 -6 -38 -9 -43 -7 -12 -3 -281 5 -310 3 -11
10 -40 16 -65 11 -50 30 -105 57 -165 10 -22 18 -42 19 -45 10 -38 118 -183
190 -255 113 -112 291 -212 445 -250 99 -24 192 -28 717 -29 l562 0 205 -308
205 -307 -718 -719 c-685 -685 -719 -721 -726 -763 -11 -59 -8 -95 11 -132 27
-54 66 -87 120 -103 56 -16 99 -12 147 13 18 9 373 357 790 774 417 418 762
760 765 760 24 5 1656 3 1663 -2 5 -3 9 -286 10 -690 0 -442 4 -699 11 -726
28 -112 179 -175 279 -116 46 26 87 82 95 128 4 22 7 348 7 725 l1 685 838 0
838 0 772 -772 c682 -680 778 -773 814 -782 83 -22 174 12 220 83 34 51 40
134 14 186 -10 19 -336 353 -724 742 -689 689 -706 707 -695 732 7 14 16 26
20 26 4 0 9 6 11 13 2 6 75 119 163 250 88 131 165 247 171 258 25 45 10 44
587 45 304 0 573 4 598 8 72 11 103 16 121 22 9 3 25 7 36 9 43 8 161 60 236
104 93 54 242 195 303 286 61 92 126 238 139 315 3 14 7 31 9 38 2 7 8 40 12
75 26 231 -23 449 -145 642 -54 86 -52 83 -142 172 -84 85 -156 136 -260 185
-156 75 -266 96 -500 99 -67 0 -188 0 -215 -1 -42 -1 -89 1 -92 4 -2 2 -5 46
-7 99 -2 52 -7 100 -11 106 -3 6 -1 11 5 11 6 0 9 4 5 10 -3 5 -8 35 -11 67
-2 32 -7 74 -9 93 -3 19 -7 58 -11 85 -3 28 -7 56 -10 64 -3 8 -7 30 -10 50
-4 30 -23 123 -40 194 -2 9 -6 25 -8 35 -14 63 -83 286 -103 332 -3 8 -7 18
-8 23 -2 4 -4 9 -5 12 -1 3 -3 8 -4 13 -1 4 -10 25 -20 47 -9 22 -22 53 -29
70 -38 93 -186 377 -199 383 -5 2 -8 8 -8 13 0 8 -127 207 -140 219 -3 3 -24
30 -45 60 -157 217 -482 541 -675 673 -25 17 -47 33 -50 37 -5 6 -172 116
-230 152 -138 84 -503 258 -543 258 -7 0 -17 4 -22 9 -6 4 -55 22 -110 39
-130 41 -199 59 -315 86 -57 13 -128 26 -175 32 -27 3 -52 8 -55 9 -3 2 -35 7
-70 10 -36 4 -83 9 -105 12 -47 6 -501 13 -506 9z m481 -400 c134 -15 187 -22
230 -31 14 -3 37 -7 52 -10 146 -27 415 -105 511 -149 17 -8 61 -27 97 -42
106 -43 311 -151 318 -166 2 -5 8 -8 14 -8 13 0 132 -77 211 -137 31 -23 62
-43 67 -43 6 0 10 -4 10 -8 0 -5 16 -20 35 -34 114 -81 319 -286 464 -463 62
-77 211 -288 211 -301 0 -3 8 -18 19 -32 33 -48 182 -346 186 -372 0 -3 4 -11
8 -18 24 -36 137 -407 152 -497 2 -11 5 -29 8 -40 3 -11 8 -40 12 -65 4 -25 9
-54 11 -65 3 -11 6 -42 9 -70 3 -27 7 -72 10 -100 3 -27 7 -98 9 -156 l5 -107
-42 -1 c-23 -1 -49 -2 -57 -2 -8 0 -40 0 -70 0 -30 0 -62 0 -70 0 -30 2 -78 2
-86 0 -5 -1 -20 -1 -34 0 -24 1 -25 4 -26 74 -2 80 -10 192 -18 250 -14 90
-16 103 -20 123 -2 12 -7 38 -10 59 -4 20 -8 40 -11 44 -2 4 -6 18 -9 32 -22
117 -82 300 -146 448 -31 72 -157 308 -170 321 -3 3 -23 33 -45 67 -22 35 -43
63 -47 63 -5 0 -8 5 -8 11 0 12 -101 139 -169 213 -136 147 -250 249 -381 345
-47 33 -89 65 -95 69 -24 19 -215 132 -227 134 -7 2 -15 6 -18 9 -21 27 -409
180 -485 192 -11 1 -24 5 -30 8 -5 4 -28 10 -50 14 -22 5 -44 9 -50 11 -17 5
-129 26 -155 30 -14 2 -38 6 -55 8 -131 20 -363 28 -410 13 -104 -32 -161
-167 -112 -267 44 -88 89 -110 242 -115 106 -4 270 -19 270 -25 0 -1 11 -3 25
-5 23 -3 69 -12 155 -30 41 -8 74 -18 185 -57 52 -18 98 -32 103 -30 4 1 7 -3
7 -8 0 -6 7 -10 15 -10 8 0 23 -4 33 -9 9 -6 54 -28 99 -50 357 -175 662 -454
881 -806 52 -85 162 -300 166 -327 1 -7 4 -17 7 -23 6 -9 49 -136 55 -160 45
-178 51 -205 60 -265 2 -19 6 -42 9 -50 4 -13 9 -76 20 -242 3 -58 -4 -61
-135 -57 -8 0 -33 0 -55 0 -22 0 -47 0 -55 0 -14 0 -114 0 -152 -1 -10 0 -26
0 -35 0 -44 -1 -139 -1 -153 -1 -8 1 -31 1 -50 0 -42 -1 -32 -1 -150 0 -52 0
-102 0 -110 0 -8 0 -24 0 -35 1 -15 1 -449 2 -565 1 -80 0 -97 0 -110 0 -8 1
-37 1 -65 0 -27 0 -57 -1 -65 0 -8 0 -33 0 -55 0 -22 0 -47 0 -55 0 -30 1
-162 0 -182 -2 -13 -1 -433 -1 -473 0 -11 1 -36 1 -55 0 -42 -1 -32 -1 -150 0
-52 0 -102 0 -110 0 -8 0 -24 0 -35 1 -11 1 -67 1 -125 1 -58 0 -112 0 -120 0
-8 0 -33 0 -55 0 -22 0 -47 0 -55 0 -8 1 -37 1 -65 0 -27 0 -57 -1 -65 0 -8 0
-33 0 -55 0 -22 0 -47 0 -55 0 -13 0 -84 0 -155 -1 -22 0 -124 1 -140 1 -5 0
-28 0 -50 0 -22 0 -47 0 -55 0 -8 1 -37 1 -65 0 -27 0 -57 -1 -65 0 -8 0 -33
0 -55 0 -22 0 -47 0 -55 0 -14 0 -114 0 -152 -1 -10 0 -26 0 -35 0 -44 -1
-139 -1 -153 -1 -8 1 -31 1 -50 0 -42 -1 -32 -1 -150 0 -52 0 -102 0 -110 0
-8 0 -24 0 -35 1 -11 1 -83 1 -159 1 -77 0 -145 4 -151 9 -11 9 -13 55 -2 66
3 4 2 14 -3 24 -5 10 -7 20 -4 23 3 3 8 38 10 79 4 75 11 153 14 153 1 0 3 23
6 50 3 28 16 106 30 175 33 156 32 154 33 158 1 1 1 3 1 5 0 1 9 29 20 62 11
33 21 62 22 65 7 37 65 195 109 296 71 164 135 283 233 434 79 121 113 167
226 303 52 63 288 297 345 342 28 22 52 42 55 45 11 12 157 118 200 146 25 16
47 32 48 37 2 4 7 7 12 7 4 0 37 18 73 39 55 34 262 143 277 146 3 1 25 11 50
22 25 11 63 26 85 34 22 8 42 16 45 19 8 8 253 86 297 94 10 2 38 9 63 16 25
7 54 14 65 16 61 12 144 26 170 30 17 2 41 6 55 8 14 3 56 8 95 11 38 3 71 7
72 9 5 5 453 -2 503 -8z m3555 -3320 c17 -4 35 -9 40 -10 6 -2 23 -8 38 -14
16 -7 30 -12 32 -12 16 0 134 -81 171 -118 185 -184 229 -447 114 -679 -85
-173 -247 -290 -440 -319 -51 -8 -7520 -9 -7590 -1 -58 6 -172 50 -230 87 -90
59 -175 159 -217 255 -37 84 -45 121 -49 221 -6 155 51 305 154 411 95 98 161
138 287 173 56 16 342 17 3860 16 2090 -1 3814 -5 3830 -10z m-5204 -1559 c4
-5 3 -21 -1 -36 -4 -14 -3 -38 1 -53 5 -18 4 -28 -3 -28 -7 0 -7 -4 1 -13 6
-8 8 -17 4 -20 -3 -4 -5 -30 -4 -59 3 -97 1 -161 -4 -167 -3 -3 -132 -5 -286
-5 l-280 -1 -39 58 c-22 32 -40 62 -40 67 0 6 -4 10 -9 10 -5 0 -13 9 -16 20
-3 11 -12 26 -18 32 -7 7 -32 42 -55 78 -23 36 -51 76 -61 90 -11 13 -18 27
-16 30 6 10 819 7 826 -3z m1170 -31 c2 -148 -1 -337 -5 -344 -3 -5 -727 -8
-768 -3 -8 1 -11 374 -3 382 2 3 178 5 390 5 l385 0 1 -40z m1169 33 c4 -6 5
-338 1 -374 -1 -7 -135 -9 -383 -9 -211 1 -386 2 -389 3 -4 1 -5 385 -1 387
13 5 768 -2 772 -7z m1220 1 c0 -4 -13 -26 -30 -48 -16 -23 -30 -46 -30 -52 0
-5 -3 -10 -8 -10 -4 0 -16 -17 -27 -37 -11 -20 -25 -41 -30 -47 -6 -6 -30 -42
-55 -81 -77 -120 -40 -109 -356 -109 -173 -1 -278 3 -283 9 -6 8 -8 351 -2
376 2 8 821 6 821 -1z"/>
<path d="M2290 4390 c-8 -5 -17 -7 -20 -5 -14 8 -83 -61 -101 -99 -74 -163 85
-329 249 -261 45 19 102 73 102 96 0 10 4 21 10 24 14 8 6 116 -11 145 -19 33
-49 63 -82 84 -31 19 -125 29 -147 16z"/>
<path d="M3845 4387 c-54 -22 -75 -37 -100 -78 -84 -132 6 -299 162 -299 171
0 258 202 138 325 -58 60 -131 79 -200 52z"/>
<path d="M5404 4386 c-147 -52 -174 -250 -47 -340 53 -37 97 -45 155 -30 65
17 102 46 129 101 43 90 20 181 -63 249 -36 28 -123 39 -174 20z"/>
<path d="M6952 4380 c-23 -11 -53 -32 -67 -47 -23 -26 -48 -90 -48 -123 -1
-34 15 -100 24 -100 5 0 9 -5 9 -12 0 -33 99 -90 156 -90 179 0 267 217 137
338 -55 51 -141 65 -211 34z"/>
</g>
</svg>
