<svg xmlns="http://www.w3.org/2000/svg" width="66" height="67" viewBox="0 0 66 67"><defs><style>.a{fill:#457fcd;}.b{fill:#fff;}</style></defs><g transform="translate(-0.039)"><ellipse class="a" cx="33" cy="33.5" rx="33" ry="33.5" transform="translate(0.039)"/><path class="a" d="M240.885,241.315l1.209-4.028h-10.81V236.28h11.146l1.209-4.028H232.56a6.772,6.772,0,0,1,5.908-2.82,10.349,10.349,0,0,1,5.573,1.679l1.343-4.364A13.919,13.919,0,0,0,238.468,225a11.4,11.4,0,0,0-10.944,7.184H224.57l-1.276,3.894h3.424v1.41H224.57l-1.276,3.894h4.3A11.193,11.193,0,0,0,238.4,248.5a11.79,11.79,0,0,0,6.714-2.014v-5.3a9.507,9.507,0,0,1-6.647,2.887,6.932,6.932,0,0,1-5.841-2.753Zm-15.107,16.517a10.671,10.671,0,0,1-4.364-20.411v-5.438a15.785,15.785,0,1,0,19.538,19.538h-5.438A10.619,10.619,0,0,1,225.778,257.832Z" transform="translate(-195.973 -210.028)"/><path class="b" d="M235.107,271.592a15.137,15.137,0,0,0,14.234-10.071h-4.1a11.245,11.245,0,0,1-10.138,6.311,11.376,11.376,0,0,1-11.347-11.347,11.245,11.245,0,0,1,6.311-10.138v-4.1a15.1,15.1,0,0,0,5.036,29.341Zm12.623-14.435a11.508,11.508,0,0,0,6.043-1.679v-3.491a9.77,9.77,0,0,1-5.976,2.081,7.378,7.378,0,0,1-6.983-4.1h8.93l.806-2.686H240.008a6.511,6.511,0,0,1-.067-1.141,7.3,7.3,0,0,1,.067-1.209h11.28l.806-2.686H240.747a7.29,7.29,0,0,1,7.05-4.163,10.788,10.788,0,0,1,5.17,1.343l.94-3.021A13.4,13.4,0,0,0,247.8,235a10.713,10.713,0,0,0-10.474,7.184h-2.954l-.806,2.551h3.223a9.921,9.921,0,0,0-.067,1.41,9,9,0,0,0,.067,1.343h-2.417l-.806,2.551h3.827A10.428,10.428,0,0,0,247.729,257.157Z" transform="translate(-205.302 -219.357)"/></g></svg>