<svg id="svg" version="1.1" xmlns="http://www.w3.org/2000/svg" xmlns:xlink="http://www.w3.org/1999/xlink" width="400" height="400" viewBox="0, 0, 400,400"><g id="svgg"><path id="path0" d="M143.800 76.000 C 143.664 76.220,142.303 76.400,140.776 76.400 C 139.192 76.400,138.000 76.572,138.000 76.800 C 138.000 77.020,137.055 77.211,135.900 77.224 C 133.782 77.248,131.703 77.577,128.400 78.411 C 127.410 78.661,125.924 78.960,125.097 79.075 C 124.271 79.190,123.495 79.445,123.374 79.642 C 123.252 79.839,122.634 80.000,122.000 80.000 C 121.366 80.000,120.736 80.180,120.600 80.400 C 120.464 80.620,119.834 80.800,119.200 80.800 C 118.566 80.800,117.936 80.980,117.800 81.200 C 117.664 81.420,117.201 81.600,116.771 81.600 C 116.341 81.600,115.632 81.780,115.195 82.000 C 114.758 82.220,114.042 82.580,113.605 82.800 C 113.168 83.020,112.358 83.200,111.805 83.200 C 111.252 83.200,110.800 83.380,110.800 83.600 C 110.800 83.820,110.440 84.000,110.000 84.000 C 109.560 84.000,109.200 84.180,109.200 84.400 C 109.200 84.620,108.660 84.800,108.000 84.800 C 107.340 84.800,106.800 84.980,106.800 85.200 C 106.800 85.420,106.528 85.600,106.195 85.600 C 105.862 85.600,105.232 85.780,104.795 86.000 C 104.358 86.220,103.642 86.580,103.205 86.800 C 102.768 87.020,102.138 87.200,101.805 87.200 C 101.472 87.200,101.200 87.380,101.200 87.600 C 101.200 87.820,100.840 88.000,100.400 88.000 C 99.960 88.000,99.600 88.180,99.600 88.400 C 99.600 88.620,99.240 88.800,98.800 88.800 C 98.360 88.800,98.000 88.980,98.000 89.200 C 98.000 89.420,97.755 89.600,97.455 89.600 C 97.156 89.600,95.491 90.343,93.755 91.252 C 92.020 92.161,90.060 93.164,89.400 93.482 C 85.471 95.374,83.697 96.356,82.913 97.074 C 82.628 97.334,82.036 97.662,81.598 97.801 C 81.159 97.940,80.800 98.222,80.800 98.427 C 80.800 98.632,80.564 98.800,80.275 98.800 C 79.987 98.800,79.364 99.160,78.892 99.600 C 78.420 100.040,77.846 100.400,77.617 100.400 C 77.388 100.400,77.200 100.580,77.200 100.800 C 77.200 101.020,76.964 101.200,76.675 101.200 C 76.387 101.200,75.764 101.560,75.292 102.000 C 74.820 102.440,74.291 102.800,74.117 102.801 C 73.943 102.801,73.170 103.341,72.400 104.000 C 71.630 104.659,70.859 105.199,70.687 105.199 C 70.116 105.201,67.600 107.962,67.600 108.587 C 67.600 108.924,67.420 109.200,67.200 109.200 C 66.980 109.200,66.800 109.560,66.800 110.000 C 66.800 110.440,66.620 110.800,66.400 110.800 C 66.180 110.800,66.000 111.145,66.000 111.567 C 66.000 111.988,65.864 112.393,65.698 112.467 C 65.532 112.540,64.792 113.860,64.053 115.400 C 63.314 116.940,62.369 118.892,61.954 119.738 C 61.539 120.584,61.200 121.529,61.200 121.838 C 61.200 122.147,61.036 122.400,60.835 122.400 C 60.634 122.400,60.349 123.120,60.200 124.000 C 60.051 124.880,59.766 125.600,59.565 125.600 C 59.364 125.600,59.200 125.960,59.200 126.400 C 59.200 126.840,59.020 127.200,58.800 127.200 C 58.580 127.200,58.400 127.650,58.400 128.200 C 58.400 128.750,58.220 129.200,58.000 129.200 C 57.780 129.200,57.600 129.472,57.600 129.805 C 57.600 130.138,57.420 130.768,57.200 131.205 C 56.980 131.642,56.620 132.358,56.400 132.795 C 56.180 133.232,56.000 133.862,56.000 134.195 C 56.000 134.528,55.820 134.800,55.600 134.800 C 55.380 134.800,55.200 135.149,55.200 135.576 C 55.200 136.003,55.020 136.464,54.800 136.600 C 54.580 136.736,54.400 137.287,54.400 137.824 C 54.400 138.361,54.220 138.800,54.000 138.800 C 53.780 138.800,53.600 139.149,53.600 139.576 C 53.600 140.003,53.420 140.464,53.200 140.600 C 52.980 140.736,52.800 141.287,52.800 141.824 C 52.800 142.361,52.620 142.800,52.400 142.800 C 52.180 142.800,52.000 143.162,52.000 143.605 C 52.000 144.048,51.841 144.723,51.647 145.105 C 51.452 145.487,51.071 146.340,50.800 147.000 C 50.529 147.660,50.148 148.513,49.953 148.895 C 49.759 149.277,49.600 149.941,49.600 150.371 C 49.600 150.801,49.420 151.264,49.200 151.400 C 48.980 151.536,48.800 152.087,48.800 152.624 C 48.800 153.161,48.620 153.600,48.400 153.600 C 48.180 153.600,48.000 154.039,48.000 154.576 C 48.000 155.113,47.820 155.664,47.600 155.800 C 47.380 155.936,47.200 156.476,47.200 157.000 C 47.200 157.524,47.020 158.064,46.800 158.200 C 46.580 158.336,46.400 158.799,46.400 159.229 C 46.400 159.659,46.229 160.323,46.019 160.705 C 45.298 162.019,44.007 166.234,43.750 168.116 C 43.607 169.152,43.336 170.000,43.146 170.000 C 42.956 170.000,42.800 170.540,42.800 171.200 C 42.800 171.860,42.620 172.400,42.400 172.400 C 42.180 172.400,42.000 172.940,42.000 173.600 C 42.000 174.260,41.820 174.800,41.600 174.800 C 41.380 174.800,41.200 175.419,41.200 176.176 C 41.200 176.933,41.020 177.664,40.800 177.800 C 40.580 177.936,40.400 178.577,40.400 179.224 C 40.400 179.871,40.220 180.400,40.000 180.400 C 39.780 180.400,39.600 181.030,39.600 181.800 C 39.600 182.570,39.420 183.200,39.200 183.200 C 38.980 183.200,38.800 183.819,38.800 184.576 C 38.800 185.333,38.620 186.064,38.400 186.200 C 38.180 186.336,38.000 186.966,38.000 187.600 C 38.000 188.234,37.820 188.864,37.600 189.000 C 37.380 189.136,37.200 189.856,37.200 190.600 C 37.200 191.344,37.020 192.064,36.800 192.200 C 36.580 192.336,36.400 193.056,36.400 193.800 C 36.400 194.544,36.220 195.264,36.000 195.400 C 35.780 195.536,35.600 196.357,35.600 197.224 C 35.600 198.091,35.420 198.800,35.200 198.800 C 34.980 198.800,34.800 199.520,34.800 200.400 C 34.800 201.280,34.620 202.000,34.400 202.000 C 34.180 202.000,34.000 202.774,34.000 203.720 C 34.000 204.666,33.838 205.611,33.641 205.820 C 33.444 206.029,33.180 206.920,33.056 207.800 C 32.501 211.735,32.329 212.650,31.998 213.400 C 31.804 213.840,31.552 214.920,31.438 215.800 C 31.324 216.680,31.036 218.480,30.797 219.800 C 30.558 221.120,30.271 223.010,30.160 224.000 C 30.049 224.990,29.799 226.160,29.605 226.600 C 29.411 227.040,29.141 228.480,29.004 229.800 C 28.867 231.120,28.595 233.370,28.400 234.800 C 27.744 239.602,27.239 245.377,27.219 248.300 C 27.208 249.954,27.028 251.200,26.800 251.200 C 26.556 251.200,26.400 253.067,26.400 256.000 C 26.400 258.933,26.244 260.800,26.000 260.800 C 25.743 260.800,25.600 264.933,25.600 272.400 C 25.600 278.780,25.750 284.000,25.932 284.000 C 26.115 284.000,26.517 284.495,26.826 285.100 C 27.650 286.714,30.125 290.035,31.448 291.304 C 32.082 291.911,33.500 293.449,34.600 294.722 C 35.700 295.995,37.407 297.659,38.393 298.419 C 39.379 299.178,40.930 300.520,41.839 301.400 C 43.717 303.218,44.424 303.807,46.400 305.195 C 47.170 305.736,48.123 306.474,48.519 306.836 C 48.914 307.198,49.859 307.829,50.619 308.238 C 51.378 308.647,52.000 309.121,52.000 309.291 C 52.000 309.461,52.278 309.600,52.617 309.600 C 52.956 309.600,53.620 309.960,54.092 310.400 C 54.564 310.840,55.187 311.200,55.475 311.200 C 55.764 311.200,56.000 311.380,56.000 311.600 C 56.000 311.820,56.278 312.000,56.617 312.000 C 56.956 312.000,57.620 312.360,58.092 312.800 C 58.564 313.240,59.187 313.600,59.475 313.600 C 59.764 313.600,60.000 313.780,60.000 314.000 C 60.000 314.220,60.360 314.400,60.800 314.400 C 61.240 314.400,61.600 314.546,61.600 314.725 C 61.600 314.904,62.230 315.298,63.000 315.600 C 63.770 315.902,64.400 316.296,64.400 316.475 C 64.400 316.654,64.665 316.800,64.988 316.800 C 65.311 316.800,66.217 317.160,67.000 317.600 C 67.783 318.040,68.779 318.400,69.212 318.400 C 69.645 318.400,70.000 318.580,70.000 318.800 C 70.000 319.020,70.272 319.200,70.605 319.200 C 70.938 319.200,71.523 319.359,71.905 319.553 C 72.840 320.029,74.307 320.618,76.000 321.200 C 76.770 321.464,77.760 321.822,78.200 321.995 C 78.640 322.167,79.810 322.534,80.800 322.808 C 84.416 323.812,85.417 324.109,86.267 324.428 C 86.744 324.606,88.233 324.877,89.576 325.029 C 90.919 325.181,92.114 325.462,92.233 325.653 C 92.351 325.844,93.247 326.000,94.224 326.000 C 95.201 326.000,96.000 326.180,96.000 326.400 C 96.000 326.622,97.059 326.800,98.376 326.800 C 99.683 326.800,100.864 326.980,101.000 327.200 C 101.136 327.420,102.857 327.600,104.824 327.600 C 106.941 327.600,108.400 327.763,108.400 328.000 C 108.400 329.084,118.151 328.435,119.094 327.288 C 120.295 325.827,124.120 321.100,124.507 320.600 C 124.677 320.380,125.262 319.660,125.807 319.000 C 126.353 318.340,126.799 317.651,126.800 317.469 C 126.800 317.286,127.520 316.446,128.400 315.600 C 129.280 314.754,130.000 313.864,130.000 313.621 C 130.000 313.378,130.765 312.407,131.700 311.463 C 132.635 310.520,133.850 309.146,134.400 308.410 C 134.950 307.675,135.625 306.845,135.900 306.565 C 136.175 306.286,136.400 305.864,136.400 305.629 C 136.400 305.393,136.550 305.200,136.732 305.200 C 136.915 305.200,137.300 304.761,137.586 304.225 C 138.199 303.081,137.453 302.000,136.052 302.000 C 135.609 302.000,135.136 301.820,135.000 301.600 C 134.864 301.380,134.401 301.200,133.971 301.200 C 133.541 301.200,132.832 301.020,132.395 300.800 C 131.958 300.580,131.242 300.220,130.805 300.000 C 130.368 299.780,129.648 299.600,129.205 299.600 C 128.762 299.600,128.400 299.420,128.400 299.200 C 128.400 298.980,127.961 298.800,127.424 298.800 C 126.887 298.800,126.336 298.620,126.200 298.400 C 126.064 298.180,125.603 298.000,125.176 298.000 C 124.749 298.000,124.400 297.820,124.400 297.600 C 124.400 297.380,124.147 297.200,123.838 297.200 C 123.530 297.200,121.741 296.390,119.864 295.400 C 117.988 294.410,116.170 293.600,115.826 293.600 C 115.482 293.600,115.200 293.420,115.200 293.200 C 115.200 292.980,114.840 292.800,114.400 292.800 C 113.960 292.800,113.600 292.620,113.600 292.400 C 113.600 292.180,113.364 292.000,113.075 292.000 C 112.787 292.000,112.164 291.640,111.692 291.200 C 111.220 290.760,110.596 290.400,110.305 290.400 C 110.014 290.400,109.517 290.040,109.200 289.600 C 108.883 289.160,108.393 288.800,108.112 288.800 C 107.830 288.800,107.600 288.620,107.600 288.400 C 107.600 288.180,107.330 288.000,107.000 288.000 C 106.670 288.000,106.400 287.820,106.400 287.600 C 106.400 287.380,106.130 287.200,105.800 287.200 C 105.470 287.200,105.200 287.050,105.200 286.868 C 105.200 286.685,104.710 286.280,104.111 285.968 C 103.511 285.655,102.320 284.725,101.462 283.900 C 100.605 283.075,99.741 282.400,99.543 282.400 C 99.345 282.400,98.214 281.455,97.030 280.300 C 95.847 279.145,94.096 277.442,93.139 276.516 C 90.856 274.305,88.800 272.076,88.800 271.811 C 88.800 271.482,90.317 271.563,90.467 271.900 C 90.658 272.330,95.435 275.200,95.960 275.200 C 96.202 275.200,96.400 275.380,96.400 275.600 C 96.400 275.820,96.760 276.000,97.200 276.000 C 97.640 276.000,98.000 276.180,98.000 276.400 C 98.000 276.620,98.360 276.800,98.800 276.800 C 99.240 276.800,99.600 276.980,99.600 277.200 C 99.600 277.420,99.960 277.600,100.400 277.600 C 100.840 277.600,101.200 277.780,101.200 278.000 C 101.200 278.220,101.560 278.400,102.000 278.400 C 102.440 278.400,102.800 278.580,102.800 278.800 C 102.800 279.020,103.160 279.200,103.600 279.200 C 104.040 279.200,104.400 279.380,104.400 279.600 C 104.400 279.820,104.760 280.000,105.200 280.000 C 105.640 280.000,106.000 280.180,106.000 280.400 C 106.000 280.620,106.360 280.800,106.800 280.800 C 107.240 280.800,107.600 280.980,107.600 281.200 C 107.600 281.420,107.960 281.600,108.400 281.600 C 108.840 281.600,109.200 281.780,109.200 282.000 C 109.200 282.220,109.549 282.400,109.976 282.400 C 110.403 282.400,110.864 282.580,111.000 282.800 C 111.136 283.020,111.597 283.200,112.024 283.200 C 112.451 283.200,112.800 283.380,112.800 283.600 C 112.800 283.820,113.072 284.000,113.405 284.000 C 113.738 284.000,114.413 284.208,114.905 284.462 C 116.782 285.433,117.207 285.600,117.795 285.600 C 118.128 285.600,118.400 285.780,118.400 286.000 C 118.400 286.220,118.839 286.400,119.376 286.400 C 119.913 286.400,120.442 286.544,120.551 286.721 C 120.660 286.897,121.661 287.290,122.775 287.593 C 123.889 287.896,124.800 288.292,124.800 288.472 C 124.800 288.653,125.340 288.800,126.000 288.800 C 126.660 288.800,127.200 288.980,127.200 289.200 C 127.200 289.420,127.620 289.600,128.133 289.600 C 128.647 289.600,129.190 289.723,129.341 289.874 C 129.781 290.315,132.458 291.156,134.305 291.435 C 135.243 291.577,136.108 291.852,136.229 292.046 C 136.349 292.241,136.977 292.400,137.624 292.400 C 138.271 292.400,138.800 292.580,138.800 292.800 C 138.800 293.020,139.340 293.200,140.000 293.200 C 140.660 293.200,141.200 293.380,141.200 293.600 C 141.200 293.820,141.729 294.000,142.376 294.000 C 143.023 294.000,143.664 294.180,143.800 294.400 C 143.936 294.620,144.656 294.800,145.400 294.800 C 146.144 294.800,146.864 294.980,147.000 295.200 C 147.136 295.420,147.766 295.600,148.400 295.600 C 149.034 295.600,149.664 295.780,149.800 296.000 C 149.936 296.220,150.746 296.400,151.600 296.400 C 152.454 296.400,153.264 296.580,153.400 296.800 C 153.536 297.020,154.357 297.200,155.224 297.200 C 156.091 297.200,156.800 297.380,156.800 297.600 C 156.800 297.820,157.610 298.000,158.600 298.000 C 159.590 298.000,160.400 298.180,160.400 298.400 C 160.400 298.620,161.289 298.800,162.376 298.800 C 163.463 298.800,164.464 298.980,164.600 299.200 C 164.736 299.420,165.726 299.600,166.800 299.600 C 167.874 299.600,168.864 299.780,169.000 300.000 C 169.136 300.220,170.497 300.400,172.024 300.400 C 173.608 300.400,174.800 300.572,174.800 300.800 C 174.800 301.032,176.107 301.200,177.920 301.200 C 179.636 301.200,181.211 301.366,181.420 301.569 C 182.678 302.789,223.741 302.794,224.980 301.574 C 225.189 301.368,226.843 301.200,228.656 301.200 C 230.469 301.200,232.064 301.020,232.200 300.800 C 232.336 300.580,233.506 300.400,234.800 300.400 C 236.094 300.400,237.264 300.220,237.400 300.000 C 237.536 299.780,238.526 299.600,239.600 299.600 C 240.674 299.600,241.664 299.420,241.800 299.200 C 241.936 298.980,242.847 298.800,243.824 298.800 C 244.801 298.800,245.600 298.620,245.600 298.400 C 245.600 298.180,246.500 298.000,247.600 298.000 C 248.700 298.000,249.600 297.820,249.600 297.600 C 249.600 297.380,250.399 297.200,251.376 297.200 C 252.353 297.200,253.264 297.020,253.400 296.800 C 253.536 296.580,254.267 296.400,255.024 296.400 C 255.781 296.400,256.400 296.220,256.400 296.000 C 256.400 295.780,256.929 295.600,257.576 295.600 C 258.223 295.600,258.864 295.420,259.000 295.200 C 259.136 294.980,259.867 294.800,260.624 294.800 C 261.381 294.800,262.000 294.620,262.000 294.400 C 262.000 294.180,262.529 294.000,263.176 294.000 C 263.823 294.000,264.464 293.820,264.600 293.600 C 264.736 293.380,265.287 293.200,265.824 293.200 C 266.361 293.200,266.800 293.020,266.800 292.800 C 266.800 292.580,267.340 292.400,268.000 292.400 C 268.660 292.400,269.200 292.243,269.200 292.052 C 269.200 291.860,270.093 291.585,271.184 291.440 C 272.275 291.295,273.275 291.002,273.407 290.788 C 273.539 290.575,274.076 290.400,274.600 290.400 C 275.124 290.400,275.664 290.220,275.800 290.000 C 275.936 289.780,276.476 289.600,277.000 289.600 C 277.524 289.600,278.064 289.420,278.200 289.200 C 278.336 288.980,278.797 288.800,279.224 288.800 C 279.651 288.800,280.000 288.620,280.000 288.400 C 280.000 288.180,280.362 288.000,280.805 288.000 C 281.248 288.000,281.923 287.841,282.305 287.647 C 282.687 287.452,283.540 287.071,284.200 286.800 C 284.860 286.529,285.713 286.148,286.095 285.953 C 286.477 285.759,287.062 285.600,287.395 285.600 C 287.728 285.600,288.000 285.420,288.000 285.200 C 288.000 284.980,288.326 284.800,288.725 284.800 C 289.124 284.800,290.195 284.440,291.106 284.000 C 292.016 283.560,293.040 283.200,293.381 283.200 C 293.721 283.200,294.000 283.020,294.000 282.800 C 294.000 282.580,294.360 282.400,294.800 282.400 C 295.240 282.400,295.600 282.220,295.600 282.000 C 295.600 281.780,295.960 281.600,296.400 281.600 C 296.840 281.600,297.200 281.420,297.200 281.200 C 297.200 280.980,297.560 280.800,298.000 280.800 C 298.440 280.800,298.800 280.620,298.800 280.400 C 298.800 280.180,299.160 280.000,299.600 280.000 C 300.040 280.000,300.400 279.820,300.400 279.600 C 300.400 279.380,300.760 279.200,301.200 279.200 C 301.640 279.200,302.000 279.020,302.000 278.800 C 302.000 278.580,302.360 278.400,302.800 278.400 C 303.240 278.400,303.600 278.254,303.600 278.075 C 303.600 277.896,304.230 277.502,305.000 277.200 C 305.770 276.898,306.400 276.504,306.400 276.325 C 306.400 276.146,306.760 276.000,307.200 276.000 C 307.640 276.000,308.000 275.840,308.000 275.643 C 308.000 275.447,308.493 275.163,309.096 275.012 C 309.699 274.860,310.284 274.616,310.396 274.468 C 310.508 274.321,311.410 273.763,312.400 273.230 C 313.390 272.696,314.325 272.071,314.478 271.841 C 314.631 271.611,314.878 271.544,315.026 271.693 C 315.174 271.841,315.004 272.253,314.648 272.610 C 314.291 272.966,314.000 273.400,314.000 273.574 C 314.000 274.004,310.634 277.394,308.015 279.600 C 306.840 280.590,305.282 281.985,304.553 282.700 C 303.823 283.415,303.067 284.000,302.873 284.000 C 302.678 284.000,301.954 284.540,301.263 285.200 C 300.572 285.860,299.871 286.400,299.704 286.401 C 299.537 286.401,298.786 286.926,298.036 287.568 C 297.286 288.209,296.206 288.972,295.636 289.264 C 295.066 289.556,294.309 290.111,293.953 290.497 C 293.597 290.884,293.012 291.200,292.653 291.200 C 292.294 291.200,292.000 291.380,292.000 291.600 C 292.000 291.820,291.680 292.000,291.288 292.000 C 290.897 292.000,290.317 292.360,290.000 292.800 C 289.683 293.240,289.148 293.604,288.812 293.609 C 288.475 293.614,286.591 294.424,284.625 295.409 C 282.659 296.394,280.814 297.200,280.525 297.200 C 280.236 297.200,280.000 297.380,280.000 297.600 C 280.000 297.820,279.651 298.000,279.224 298.000 C 278.797 298.000,278.336 298.180,278.200 298.400 C 278.064 298.620,277.603 298.800,277.176 298.800 C 276.749 298.800,276.400 298.980,276.400 299.200 C 276.400 299.420,276.038 299.600,275.595 299.600 C 275.152 299.600,274.387 299.808,273.895 300.062 C 271.969 301.058,271.583 301.200,270.805 301.200 C 270.362 301.200,270.000 301.380,270.000 301.600 C 270.000 301.820,269.496 302.000,268.880 302.000 C 268.264 302.000,267.589 302.166,267.380 302.369 C 267.171 302.572,266.460 302.797,265.800 302.869 C 264.959 302.961,264.567 303.239,264.489 303.800 C 264.386 304.548,264.994 305.371,268.700 309.506 C 269.415 310.304,270.000 311.115,270.000 311.310 C 270.000 311.504,270.720 312.354,271.600 313.200 C 272.480 314.046,273.200 314.910,273.200 315.120 C 273.200 315.331,273.943 316.269,274.851 317.205 C 275.760 318.141,276.708 319.302,276.958 319.785 C 277.518 320.864,279.972 323.825,282.474 326.441 L 284.348 328.400 288.774 328.400 C 291.458 328.400,293.200 328.243,293.200 328.000 C 293.200 327.765,294.592 327.600,296.576 327.600 C 298.433 327.600,300.064 327.420,300.200 327.200 C 300.336 326.980,301.596 326.800,303.000 326.800 C 304.404 326.800,305.664 326.620,305.800 326.400 C 305.936 326.180,306.926 326.000,308.000 326.000 C 309.074 326.000,310.051 325.841,310.171 325.647 C 310.291 325.453,311.559 325.169,312.990 325.016 C 314.421 324.863,315.694 324.571,315.819 324.369 C 315.945 324.166,316.656 324.000,317.400 324.000 C 318.144 324.000,318.864 323.820,319.000 323.600 C 319.136 323.380,319.676 323.200,320.200 323.200 C 320.724 323.200,321.264 323.020,321.400 322.800 C 321.536 322.580,322.076 322.400,322.600 322.400 C 323.124 322.400,323.664 322.220,323.800 322.000 C 323.936 321.780,324.476 321.600,325.000 321.600 C 325.524 321.600,326.064 321.420,326.200 321.200 C 326.336 320.980,326.887 320.800,327.424 320.800 C 327.961 320.800,328.400 320.620,328.400 320.400 C 328.400 320.180,328.749 320.000,329.176 320.000 C 329.603 320.000,330.064 319.820,330.200 319.600 C 330.336 319.380,330.887 319.200,331.424 319.200 C 331.961 319.200,332.400 319.020,332.400 318.800 C 332.400 318.580,332.760 318.400,333.200 318.400 C 333.640 318.400,334.000 318.220,334.000 318.000 C 334.000 317.780,334.245 317.600,334.544 317.600 C 335.086 317.600,340.020 315.216,340.400 314.770 C 340.510 314.641,341.185 314.281,341.900 313.970 C 342.615 313.659,343.200 313.269,343.200 313.102 C 343.200 312.936,343.560 312.800,344.000 312.800 C 344.440 312.800,344.800 312.620,344.800 312.400 C 344.800 312.180,345.036 312.000,345.325 312.000 C 345.613 312.000,346.236 311.640,346.708 311.200 C 347.180 310.760,347.844 310.400,348.183 310.400 C 348.522 310.400,348.800 310.241,348.800 310.046 C 348.800 309.851,349.475 309.374,350.300 308.986 C 351.125 308.599,351.890 308.173,352.000 308.041 C 352.110 307.908,353.100 307.179,354.200 306.421 C 355.300 305.662,356.290 304.933,356.400 304.801 C 356.510 304.669,357.230 304.124,358.000 303.589 C 358.770 303.055,360.606 301.398,362.081 299.909 C 363.555 298.419,364.916 297.200,365.104 297.200 C 365.293 297.200,366.329 296.165,367.406 294.900 C 368.483 293.635,369.891 292.150,370.534 291.600 C 371.948 290.392,375.200 286.231,375.200 285.630 C 375.200 285.394,375.380 285.200,375.600 285.200 C 375.820 285.200,376.000 284.930,376.000 284.600 C 376.000 284.270,376.180 284.000,376.400 284.000 C 376.946 284.000,376.946 263.338,376.400 263.000 C 376.163 262.854,376.000 260.396,376.000 256.976 C 376.000 253.392,375.848 251.200,375.600 251.200 C 375.372 251.200,375.192 249.954,375.181 248.300 C 375.148 243.455,374.204 235.353,372.394 224.400 C 372.158 222.970,371.866 220.900,371.746 219.800 C 371.625 218.700,371.363 217.629,371.163 217.420 C 370.963 217.211,370.800 216.302,370.800 215.400 C 370.800 214.498,370.638 213.589,370.441 213.380 C 370.244 213.171,369.983 212.280,369.861 211.400 C 369.740 210.520,369.442 208.810,369.200 207.600 C 368.958 206.390,368.659 204.724,368.537 203.897 C 368.415 203.071,368.155 202.295,367.958 202.174 C 367.761 202.052,367.600 201.254,367.600 200.400 C 367.600 199.546,367.420 198.736,367.200 198.600 C 366.980 198.464,366.800 197.744,366.800 197.000 C 366.800 196.256,366.620 195.536,366.400 195.400 C 366.180 195.264,366.000 194.544,366.000 193.800 C 366.000 193.056,365.820 192.336,365.600 192.200 C 365.380 192.064,365.200 191.434,365.200 190.800 C 365.200 190.166,365.020 189.536,364.800 189.400 C 364.580 189.264,364.400 188.544,364.400 187.800 C 364.400 187.056,364.220 186.336,364.000 186.200 C 363.780 186.064,363.600 185.333,363.600 184.576 C 363.600 183.819,363.420 183.200,363.200 183.200 C 362.980 183.200,362.800 182.671,362.800 182.024 C 362.800 181.377,362.620 180.736,362.400 180.600 C 362.180 180.464,362.000 179.834,362.000 179.200 C 362.000 178.566,361.820 177.936,361.600 177.800 C 361.380 177.664,361.200 177.034,361.200 176.400 C 361.200 175.766,361.020 175.136,360.800 175.000 C 360.580 174.864,360.400 174.223,360.400 173.576 C 360.400 172.929,360.220 172.400,360.000 172.400 C 359.780 172.400,359.600 171.860,359.600 171.200 C 359.600 170.540,359.444 170.000,359.254 170.000 C 359.064 170.000,358.793 169.152,358.650 168.116 C 358.393 166.234,357.102 162.019,356.381 160.705 C 356.171 160.323,356.000 159.659,356.000 159.229 C 356.000 158.799,355.820 158.336,355.600 158.200 C 355.380 158.064,355.200 157.524,355.200 157.000 C 355.200 156.476,355.020 155.936,354.800 155.800 C 354.580 155.664,354.400 155.113,354.400 154.576 C 354.400 154.039,354.220 153.600,354.000 153.600 C 353.780 153.600,353.600 153.060,353.600 152.400 C 353.600 151.740,353.420 151.200,353.200 151.200 C 352.980 151.200,352.800 150.838,352.800 150.395 C 352.800 149.952,352.641 149.277,352.447 148.895 C 352.252 148.513,351.871 147.660,351.600 147.000 C 351.329 146.340,350.948 145.487,350.753 145.105 C 350.559 144.723,350.400 144.048,350.400 143.605 C 350.400 143.162,350.220 142.800,350.000 142.800 C 349.780 142.800,349.600 142.361,349.600 141.824 C 349.600 141.287,349.420 140.736,349.200 140.600 C 348.980 140.464,348.800 140.003,348.800 139.576 C 348.800 139.149,348.620 138.800,348.400 138.800 C 348.180 138.800,348.000 138.361,348.000 137.824 C 348.000 137.287,347.820 136.736,347.600 136.600 C 347.380 136.464,347.200 136.003,347.200 135.576 C 347.200 135.149,347.020 134.800,346.800 134.800 C 346.580 134.800,346.400 134.350,346.400 133.800 C 346.400 133.250,346.220 132.800,346.000 132.800 C 345.780 132.800,345.600 132.350,345.600 131.800 C 345.600 131.250,345.420 130.800,345.200 130.800 C 344.980 130.800,344.800 130.440,344.800 130.000 C 344.800 129.560,344.620 129.200,344.400 129.200 C 344.180 129.200,344.000 128.750,344.000 128.200 C 344.000 127.650,343.820 127.200,343.600 127.200 C 343.380 127.200,343.200 126.840,343.200 126.400 C 343.200 125.960,343.020 125.600,342.800 125.600 C 342.580 125.600,342.400 125.240,342.400 124.800 C 342.400 124.360,342.240 124.000,342.045 124.000 C 341.849 124.000,341.571 123.373,341.428 122.606 C 341.284 121.839,340.834 120.534,340.429 119.706 C 340.023 118.878,339.086 116.940,338.347 115.400 C 337.608 113.860,336.868 112.540,336.702 112.467 C 336.536 112.393,336.400 112.114,336.400 111.846 C 336.400 111.137,335.451 109.207,335.100 109.203 C 334.935 109.201,334.800 108.924,334.800 108.587 C 334.800 107.962,332.284 105.201,331.713 105.199 C 331.541 105.199,330.770 104.659,330.000 104.000 C 329.230 103.341,328.375 102.801,328.100 102.801 C 327.825 102.800,327.600 102.650,327.600 102.468 C 327.600 102.285,327.105 101.880,326.500 101.568 C 325.895 101.255,325.082 100.714,324.693 100.364 C 324.305 100.014,323.495 99.474,322.893 99.164 C 322.292 98.854,321.451 98.285,321.025 97.900 C 320.598 97.515,320.013 97.200,319.725 97.200 C 319.436 97.200,319.200 97.020,319.200 96.800 C 319.200 96.580,318.840 96.400,318.400 96.400 C 317.960 96.400,317.600 96.258,317.600 96.084 C 317.600 95.662,313.499 93.600,312.660 93.600 C 312.297 93.600,312.000 93.420,312.000 93.200 C 312.000 92.980,311.640 92.800,311.200 92.800 C 310.760 92.800,310.400 92.655,310.400 92.479 C 310.400 92.302,309.503 91.717,308.406 91.179 C 307.310 90.640,306.410 90.065,306.406 89.900 C 306.403 89.735,305.950 89.600,305.400 89.600 C 304.850 89.600,304.400 89.420,304.400 89.200 C 304.400 88.980,304.040 88.800,303.600 88.800 C 303.160 88.800,302.800 88.620,302.800 88.400 C 302.800 88.180,302.440 88.000,302.000 88.000 C 301.560 88.000,301.200 87.820,301.200 87.600 C 301.200 87.380,300.851 87.200,300.424 87.200 C 299.997 87.200,299.536 87.020,299.400 86.800 C 299.264 86.580,298.713 86.400,298.176 86.400 C 297.639 86.400,297.200 86.220,297.200 86.000 C 297.200 85.780,296.851 85.600,296.424 85.600 C 295.997 85.600,295.536 85.420,295.400 85.200 C 295.264 84.980,294.713 84.800,294.176 84.800 C 293.639 84.800,293.200 84.620,293.200 84.400 C 293.200 84.180,292.851 84.000,292.424 84.000 C 291.997 84.000,291.536 83.820,291.400 83.600 C 291.264 83.380,290.724 83.200,290.200 83.200 C 289.676 83.200,289.136 83.020,289.000 82.800 C 288.864 82.580,288.324 82.400,287.800 82.400 C 287.276 82.400,286.736 82.220,286.600 82.000 C 286.464 81.780,285.924 81.600,285.400 81.600 C 284.876 81.600,284.336 81.420,284.200 81.200 C 284.064 80.980,283.434 80.800,282.800 80.800 C 282.166 80.800,281.536 80.620,281.400 80.400 C 281.264 80.180,280.634 80.000,280.000 80.000 C 279.366 80.000,278.748 79.840,278.627 79.644 C 278.506 79.449,277.821 79.192,277.104 79.073 C 276.387 78.955,274.990 78.655,274.000 78.407 C 270.740 77.591,268.626 77.248,266.700 77.224 C 265.655 77.211,264.800 77.020,264.800 76.800 C 264.800 76.575,263.675 76.400,262.224 76.400 C 260.807 76.400,259.536 76.220,259.400 76.000 C 259.255 75.765,256.910 75.600,253.720 75.600 L 248.288 75.600 246.344 77.660 C 243.915 80.233,243.885 81.600,246.256 81.600 C 246.749 81.600,247.264 81.780,247.400 82.000 C 247.536 82.220,248.087 82.400,248.624 82.400 C 249.161 82.400,249.600 82.580,249.600 82.800 C 249.600 83.020,250.140 83.200,250.800 83.200 C 251.460 83.200,252.000 83.380,252.000 83.600 C 252.000 83.820,252.540 84.000,253.200 84.000 C 253.860 84.000,254.400 84.180,254.400 84.400 C 254.400 84.620,254.749 84.800,255.176 84.800 C 255.603 84.800,256.064 84.980,256.200 85.200 C 256.336 85.420,256.887 85.600,257.424 85.600 C 257.961 85.600,258.400 85.780,258.400 86.000 C 258.400 86.220,258.940 86.400,259.600 86.400 C 260.260 86.400,260.800 86.580,260.800 86.800 C 260.800 87.020,261.162 87.200,261.605 87.200 C 262.383 87.200,262.769 87.342,264.695 88.338 C 265.187 88.592,265.862 88.800,266.195 88.800 C 266.528 88.800,266.800 88.947,266.800 89.128 C 266.800 89.308,267.700 89.700,268.800 90.000 C 269.900 90.300,270.800 90.676,270.800 90.837 C 270.800 90.998,271.520 91.251,272.400 91.400 C 273.280 91.549,274.000 91.834,274.000 92.035 C 274.000 92.236,274.349 92.400,274.776 92.400 C 275.203 92.400,275.664 92.580,275.800 92.800 C 275.936 93.020,276.397 93.200,276.824 93.200 C 277.251 93.200,277.600 93.380,277.600 93.600 C 277.600 93.820,277.960 94.000,278.400 94.000 C 278.840 94.000,279.200 94.180,279.200 94.400 C 279.200 94.620,279.560 94.800,280.000 94.800 C 280.440 94.800,280.800 94.980,280.800 95.200 C 280.800 95.420,281.160 95.600,281.600 95.600 C 282.040 95.600,282.400 95.780,282.400 96.000 C 282.400 96.220,282.760 96.400,283.200 96.400 C 283.640 96.400,284.000 96.580,284.000 96.800 C 284.000 97.020,284.360 97.200,284.800 97.200 C 285.240 97.200,285.600 97.380,285.600 97.600 C 285.600 97.820,285.960 98.000,286.400 98.000 C 286.840 98.000,287.200 98.180,287.200 98.400 C 287.200 98.620,287.560 98.800,288.000 98.800 C 288.440 98.800,288.800 98.980,288.800 99.200 C 288.800 99.420,289.160 99.600,289.600 99.600 C 290.040 99.600,290.400 99.780,290.400 100.000 C 290.400 100.220,290.745 100.400,291.167 100.400 C 291.588 100.400,291.993 100.535,292.067 100.700 C 292.244 101.099,296.350 103.600,296.827 103.600 C 297.032 103.600,297.200 103.759,297.200 103.953 C 297.200 104.148,297.515 104.413,297.900 104.542 C 298.645 104.793,299.787 105.457,303.000 107.508 C 304.100 108.210,305.225 108.788,305.500 108.792 C 305.775 108.797,306.000 108.950,306.000 109.132 C 306.000 109.315,306.495 109.719,307.100 110.030 C 307.705 110.340,308.491 110.911,308.847 111.297 C 309.203 111.684,309.615 112.000,309.764 112.000 C 309.912 112.000,310.420 112.360,310.892 112.800 C 311.364 113.240,311.548 113.600,311.299 113.600 C 311.051 113.600,310.736 113.420,310.600 113.200 C 310.464 112.980,310.018 112.800,309.610 112.800 C 309.201 112.800,308.807 112.658,308.733 112.485 C 308.539 112.028,304.237 110.000,303.460 110.000 C 303.097 110.000,302.800 109.820,302.800 109.600 C 302.800 109.380,302.528 109.200,302.195 109.200 C 301.862 109.200,301.232 109.020,300.795 108.800 C 300.358 108.580,299.642 108.220,299.205 108.000 C 298.768 107.780,298.138 107.600,297.805 107.600 C 297.472 107.600,297.200 107.420,297.200 107.200 C 297.200 106.980,296.851 106.800,296.424 106.800 C 295.997 106.800,295.536 106.620,295.400 106.400 C 295.264 106.180,294.713 106.000,294.176 106.000 C 293.639 106.000,293.200 105.820,293.200 105.600 C 293.200 105.380,292.840 105.200,292.400 105.200 C 291.960 105.200,291.600 105.020,291.600 104.800 C 291.600 104.580,291.238 104.400,290.795 104.400 C 290.352 104.400,289.677 104.241,289.295 104.047 C 288.913 103.852,288.060 103.471,287.400 103.200 C 286.740 102.929,285.887 102.548,285.505 102.353 C 285.123 102.159,284.448 102.000,284.005 102.000 C 283.562 102.000,283.200 101.820,283.200 101.600 C 283.200 101.380,282.660 101.200,282.000 101.200 C 281.340 101.200,280.800 101.020,280.800 100.800 C 280.800 100.580,280.260 100.400,279.600 100.400 C 278.940 100.400,278.400 100.220,278.400 100.000 C 278.400 99.780,277.860 99.600,277.200 99.600 C 276.540 99.600,276.000 99.420,276.000 99.200 C 276.000 98.980,275.471 98.800,274.824 98.800 C 274.177 98.800,273.536 98.620,273.400 98.400 C 273.264 98.180,272.623 98.000,271.976 98.000 C 271.329 98.000,270.800 97.840,270.800 97.644 C 270.800 97.448,270.215 97.191,269.500 97.072 C 267.340 96.715,265.843 96.358,265.000 96.000 C 264.560 95.813,263.660 95.549,263.000 95.412 C 262.340 95.276,261.080 94.976,260.200 94.747 C 259.320 94.517,257.205 94.133,255.500 93.893 C 253.795 93.653,252.400 93.309,252.400 93.128 C 252.400 92.948,251.500 92.800,250.400 92.800 C 249.300 92.800,248.400 92.620,248.400 92.400 C 248.400 92.180,247.511 92.000,246.424 92.000 C 245.337 92.000,244.336 91.820,244.200 91.600 C 244.064 91.380,242.973 91.200,241.776 91.200 C 240.579 91.200,239.600 91.020,239.600 90.800 C 239.600 90.572,238.408 90.400,236.824 90.400 C 235.297 90.400,233.936 90.220,233.800 90.000 C 233.664 89.780,232.224 89.600,230.600 89.600 C 228.976 89.600,227.536 89.420,227.400 89.200 C 227.261 88.975,225.337 88.800,223.000 88.800 C 220.663 88.800,218.739 88.625,218.600 88.400 C 218.442 88.144,212.537 88.000,202.200 88.000 C 191.863 88.000,185.958 88.144,185.800 88.400 C 185.656 88.633,183.404 88.800,180.400 88.800 C 177.396 88.800,175.144 88.967,175.000 89.200 C 174.864 89.420,173.244 89.600,171.400 89.600 C 169.556 89.600,167.936 89.780,167.800 90.000 C 167.664 90.220,166.314 90.400,164.800 90.400 C 163.286 90.400,161.936 90.580,161.800 90.800 C 161.664 91.020,160.303 91.200,158.776 91.200 C 157.192 91.200,156.000 91.372,156.000 91.600 C 156.000 91.829,154.800 92.000,153.200 92.000 C 151.600 92.000,150.400 92.171,150.400 92.400 C 150.400 92.620,149.530 92.800,148.467 92.800 C 147.403 92.800,146.399 92.935,146.235 93.100 C 146.071 93.265,144.466 93.609,142.668 93.865 C 140.871 94.121,138.590 94.539,137.600 94.794 C 136.610 95.049,135.213 95.355,134.496 95.473 C 133.779 95.592,133.094 95.849,132.973 96.044 C 132.852 96.240,132.144 96.400,131.400 96.400 C 130.656 96.400,129.936 96.580,129.800 96.800 C 129.664 97.020,129.023 97.200,128.376 97.200 C 127.729 97.200,127.200 97.380,127.200 97.600 C 127.200 97.820,126.660 98.000,126.000 98.000 C 125.340 98.000,124.800 98.180,124.800 98.400 C 124.800 98.620,124.181 98.800,123.424 98.800 C 122.667 98.800,121.936 98.980,121.800 99.200 C 121.664 99.420,121.124 99.600,120.600 99.600 C 120.076 99.600,119.536 99.780,119.400 100.000 C 119.264 100.220,118.623 100.400,117.976 100.400 C 117.329 100.400,116.800 100.580,116.800 100.800 C 116.800 101.020,116.361 101.200,115.824 101.200 C 115.287 101.200,114.736 101.380,114.600 101.600 C 114.464 101.820,113.913 102.000,113.376 102.000 C 112.839 102.000,112.400 102.180,112.400 102.400 C 112.400 102.620,111.950 102.800,111.400 102.800 C 110.850 102.800,110.400 102.980,110.400 103.200 C 110.400 103.420,109.950 103.600,109.400 103.600 C 108.850 103.600,108.400 103.780,108.400 104.000 C 108.400 104.220,107.860 104.400,107.200 104.400 C 106.540 104.400,106.000 104.580,106.000 104.800 C 106.000 105.020,105.561 105.200,105.024 105.200 C 104.487 105.200,103.936 105.380,103.800 105.600 C 103.664 105.820,103.203 106.000,102.776 106.000 C 102.349 106.000,102.000 106.180,102.000 106.400 C 102.000 106.620,101.651 106.800,101.224 106.800 C 100.797 106.800,100.336 106.980,100.200 107.200 C 100.064 107.420,99.513 107.600,98.976 107.600 C 98.439 107.600,98.000 107.780,98.000 108.000 C 98.000 108.220,97.640 108.400,97.200 108.400 C 96.760 108.400,96.400 108.580,96.400 108.800 C 96.400 109.020,95.950 109.200,95.400 109.200 C 94.850 109.200,94.400 109.380,94.400 109.600 C 94.400 109.820,94.136 110.000,93.814 110.000 C 93.491 110.000,91.573 110.811,89.550 111.803 C 87.528 112.795,85.790 113.523,85.689 113.422 C 85.431 113.164,86.397 112.305,87.700 111.632 C 88.305 111.320,88.800 110.915,88.800 110.732 C 88.800 110.550,89.070 110.400,89.400 110.400 C 89.730 110.400,90.000 110.220,90.000 110.000 C 90.000 109.780,90.270 109.600,90.600 109.600 C 90.930 109.600,91.200 109.440,91.200 109.243 C 91.200 109.047,91.650 108.774,92.200 108.636 C 92.750 108.498,93.200 108.230,93.200 108.041 C 93.200 107.852,93.740 107.473,94.400 107.200 C 95.060 106.927,95.600 106.545,95.600 106.351 C 95.600 106.158,95.878 106.000,96.217 106.000 C 96.556 106.000,97.220 105.640,97.692 105.200 C 98.164 104.760,98.787 104.400,99.075 104.400 C 99.364 104.400,99.600 104.220,99.600 104.000 C 99.600 103.780,99.960 103.600,100.400 103.600 C 100.840 103.600,101.200 103.441,101.200 103.247 C 101.200 103.052,101.515 102.793,101.900 102.671 C 102.596 102.451,104.818 101.187,105.200 100.795 C 105.310 100.682,106.300 100.142,107.400 99.595 C 108.500 99.048,109.460 98.465,109.533 98.300 C 109.607 98.135,110.012 98.000,110.433 98.000 C 110.855 98.000,111.200 97.820,111.200 97.600 C 111.200 97.380,111.560 97.200,112.000 97.200 C 112.440 97.200,112.800 97.020,112.800 96.800 C 112.800 96.580,113.160 96.400,113.600 96.400 C 114.040 96.400,114.400 96.220,114.400 96.000 C 114.400 95.780,114.760 95.600,115.200 95.600 C 115.640 95.600,116.000 95.420,116.000 95.200 C 116.000 94.980,116.360 94.800,116.800 94.800 C 117.240 94.800,117.600 94.620,117.600 94.400 C 117.600 94.180,117.960 94.000,118.400 94.000 C 118.840 94.000,119.200 93.820,119.200 93.600 C 119.200 93.380,119.549 93.200,119.976 93.200 C 120.403 93.200,120.864 93.020,121.000 92.800 C 121.136 92.580,121.597 92.400,122.024 92.400 C 122.451 92.400,122.800 92.236,122.800 92.035 C 122.800 91.834,123.520 91.549,124.400 91.400 C 125.280 91.251,126.000 90.998,126.000 90.837 C 126.000 90.676,126.900 90.300,128.000 90.000 C 129.100 89.700,130.000 89.308,130.000 89.128 C 130.000 88.947,130.362 88.800,130.805 88.800 C 131.248 88.800,131.923 88.641,132.305 88.447 C 132.687 88.252,133.540 87.871,134.200 87.600 C 134.860 87.329,135.713 86.948,136.095 86.753 C 136.477 86.559,137.152 86.400,137.595 86.400 C 138.038 86.400,138.400 86.220,138.400 86.000 C 138.400 85.780,138.814 85.600,139.320 85.600 C 139.826 85.600,140.411 85.451,140.620 85.270 C 140.829 85.088,141.810 84.710,142.800 84.431 C 143.790 84.151,144.913 83.760,145.295 83.561 C 145.677 83.362,146.341 83.200,146.771 83.200 C 147.201 83.200,147.664 83.020,147.800 82.800 C 147.936 82.580,148.397 82.400,148.824 82.400 C 149.251 82.400,149.600 82.220,149.600 82.000 C 149.600 81.780,150.230 81.600,151.000 81.600 C 151.770 81.600,152.400 81.420,152.400 81.200 C 152.400 80.980,152.940 80.800,153.600 80.800 C 154.260 80.800,154.800 80.620,154.800 80.400 C 154.800 80.180,155.250 80.000,155.800 80.000 C 157.226 80.000,157.089 78.872,155.446 77.078 L 154.092 75.600 149.070 75.600 C 146.153 75.600,143.944 75.768,143.800 76.000 M151.000 189.200 C 151.136 189.420,151.642 189.600,152.125 189.600 C 153.601 189.600,160.800 192.337,160.800 192.898 C 160.800 193.064,161.070 193.200,161.400 193.200 C 161.730 193.200,162.000 193.380,162.000 193.600 C 162.000 193.820,162.270 194.000,162.600 194.000 C 162.930 194.000,163.200 194.180,163.200 194.400 C 163.200 194.620,163.383 194.800,163.606 194.800 C 164.090 194.800,170.000 200.640,170.000 201.118 C 170.000 201.300,170.325 201.798,170.722 202.225 C 171.120 202.651,171.703 203.585,172.020 204.300 C 172.336 205.015,172.731 205.600,172.898 205.600 C 173.064 205.600,173.200 205.960,173.200 206.400 C 173.200 206.840,173.380 207.200,173.600 207.200 C 173.820 207.200,174.000 207.740,174.000 208.400 C 174.000 209.060,174.180 209.600,174.400 209.600 C 174.620 209.600,174.800 210.320,174.800 211.200 C 174.800 212.080,174.980 212.800,175.200 212.800 C 175.444 212.800,175.600 214.667,175.600 217.600 C 175.600 220.533,175.444 222.400,175.200 222.400 C 174.969 222.400,174.800 223.659,174.800 225.376 C 174.800 227.013,174.620 228.464,174.400 228.600 C 174.180 228.736,174.000 229.366,174.000 230.000 C 174.000 230.634,173.820 231.264,173.600 231.400 C 173.380 231.536,173.200 232.076,173.200 232.600 C 173.200 233.124,173.020 233.664,172.800 233.800 C 172.580 233.936,172.400 234.397,172.400 234.824 C 172.400 235.251,172.220 235.600,172.000 235.600 C 171.780 235.600,171.600 235.960,171.600 236.400 C 171.600 236.840,171.420 237.200,171.200 237.200 C 170.980 237.200,170.800 237.560,170.800 238.000 C 170.800 238.440,170.620 238.800,170.400 238.800 C 170.180 238.800,170.000 239.043,170.000 239.341 C 170.000 239.638,169.460 240.446,168.800 241.137 C 168.140 241.828,167.600 242.664,167.600 242.996 C 167.600 243.328,167.438 243.600,167.241 243.600 C 167.043 243.600,165.992 244.455,164.906 245.500 C 162.251 248.055,160.306 249.584,159.700 249.593 C 159.425 249.597,159.200 249.780,159.200 250.000 C 159.200 250.220,158.840 250.400,158.400 250.400 C 157.960 250.400,157.600 250.580,157.600 250.800 C 157.600 251.020,157.240 251.200,156.800 251.200 C 156.360 251.200,156.000 251.380,156.000 251.600 C 156.000 251.820,155.651 252.000,155.224 252.000 C 154.797 252.000,154.336 252.180,154.200 252.400 C 154.064 252.620,153.434 252.800,152.800 252.800 C 152.166 252.800,151.536 252.980,151.400 253.200 C 151.252 253.439,148.663 253.600,144.976 253.600 C 141.125 253.600,138.800 253.449,138.800 253.200 C 138.800 252.980,138.271 252.800,137.624 252.800 C 136.977 252.800,136.336 252.620,136.200 252.400 C 136.064 252.180,135.513 252.000,134.976 252.000 C 134.439 252.000,134.000 251.820,134.000 251.600 C 134.000 251.380,133.640 251.200,133.200 251.200 C 132.760 251.200,132.400 251.020,132.400 250.800 C 132.400 250.580,132.040 250.400,131.600 250.400 C 131.160 250.400,130.800 250.250,130.800 250.068 C 130.800 249.885,130.306 249.480,129.702 249.168 C 127.313 247.933,120.800 241.367,120.800 240.193 C 120.800 239.867,120.642 239.600,120.449 239.600 C 120.255 239.600,119.873 239.060,119.600 238.400 C 119.327 237.740,118.945 237.200,118.751 237.200 C 118.558 237.200,118.400 236.851,118.400 236.424 C 118.400 235.997,118.220 235.536,118.000 235.400 C 117.780 235.264,117.600 234.713,117.600 234.176 C 117.600 233.639,117.420 233.200,117.200 233.200 C 116.980 233.200,116.800 232.761,116.800 232.224 C 116.800 231.687,116.620 231.136,116.400 231.000 C 116.180 230.864,116.000 230.054,116.000 229.200 C 116.000 228.346,115.820 227.536,115.600 227.400 C 115.361 227.253,115.200 224.670,115.200 221.000 C 115.200 217.330,115.361 214.747,115.600 214.600 C 115.820 214.464,116.000 213.643,116.000 212.776 C 116.000 211.909,116.180 211.200,116.400 211.200 C 116.620 211.200,116.800 210.660,116.800 210.000 C 116.800 209.340,116.980 208.800,117.200 208.800 C 117.420 208.800,117.600 208.451,117.600 208.024 C 117.600 207.597,117.780 207.136,118.000 207.000 C 118.220 206.864,118.400 206.403,118.400 205.976 C 118.400 205.549,118.580 205.200,118.800 205.200 C 119.020 205.200,119.200 204.840,119.200 204.400 C 119.200 203.960,119.350 203.600,119.532 203.600 C 119.715 203.600,120.120 203.105,120.432 202.500 C 120.744 201.895,121.094 201.310,121.210 201.200 C 121.326 201.090,122.039 200.190,122.794 199.200 C 123.549 198.210,124.607 197.040,125.146 196.600 C 125.684 196.160,126.721 195.215,127.449 194.500 C 128.177 193.785,129.010 193.200,129.298 193.200 C 129.587 193.200,130.075 192.850,130.383 192.423 C 130.691 191.996,131.631 191.530,132.472 191.388 C 133.312 191.246,134.000 190.966,134.000 190.765 C 134.000 190.564,134.439 190.400,134.976 190.400 C 135.513 190.400,136.064 190.220,136.200 190.000 C 136.336 189.780,136.966 189.600,137.600 189.600 C 138.234 189.600,138.864 189.420,139.000 189.200 C 139.146 188.963,141.596 188.800,145.000 188.800 C 148.404 188.800,150.854 188.963,151.000 189.200 M260.600 189.200 C 260.736 189.420,261.237 189.600,261.714 189.600 C 262.724 189.600,268.137 191.638,268.333 192.092 C 268.407 192.261,268.812 192.400,269.233 192.400 C 269.655 192.400,270.000 192.550,270.000 192.732 C 270.000 192.915,270.492 193.320,271.093 193.632 C 272.895 194.568,276.941 198.858,278.624 201.617 C 279.491 203.037,280.335 204.260,280.500 204.333 C 280.665 204.407,280.800 204.812,280.800 205.233 C 280.800 205.655,280.980 206.000,281.200 206.000 C 281.420 206.000,281.600 206.272,281.600 206.605 C 281.600 207.193,281.767 207.618,282.738 209.495 C 282.992 209.987,283.200 210.831,283.200 211.371 C 283.200 211.911,283.380 212.464,283.600 212.600 C 283.820 212.736,284.000 213.816,284.000 215.000 C 284.000 216.184,284.180 217.264,284.400 217.400 C 284.623 217.538,284.800 219.404,284.800 221.624 C 284.800 224.008,284.640 225.600,284.400 225.600 C 284.180 225.600,284.000 226.500,284.000 227.600 C 284.000 228.700,283.820 229.600,283.600 229.600 C 283.380 229.600,283.200 230.230,283.200 231.000 C 283.200 231.770,283.053 232.400,282.872 232.400 C 282.692 232.400,282.300 233.300,282.000 234.400 C 281.700 235.500,281.308 236.400,281.128 236.400 C 280.947 236.400,280.800 236.745,280.800 237.167 C 280.800 237.588,280.665 237.993,280.500 238.067 C 280.335 238.140,279.513 239.326,278.674 240.703 C 277.834 242.079,276.484 243.827,275.674 244.587 C 272.598 247.471,271.505 248.400,271.186 248.400 C 271.005 248.400,270.581 248.676,270.244 249.013 C 269.339 249.919,265.238 252.000,264.359 252.000 C 263.942 252.000,263.600 252.180,263.600 252.400 C 263.600 252.620,263.060 252.800,262.400 252.800 C 261.740 252.800,261.200 252.980,261.200 253.200 C 261.200 253.449,258.875 253.600,255.024 253.600 C 251.337 253.600,248.748 253.439,248.600 253.200 C 248.464 252.980,247.733 252.800,246.976 252.800 C 246.219 252.800,245.600 252.620,245.600 252.400 C 245.600 252.180,245.161 252.000,244.624 252.000 C 244.087 252.000,243.536 251.820,243.400 251.600 C 243.264 251.380,242.818 251.200,242.410 251.200 C 242.001 251.200,241.607 251.055,241.533 250.877 C 241.460 250.699,240.500 249.944,239.400 249.199 C 238.300 248.455,236.500 246.994,235.400 245.954 C 234.300 244.913,233.039 243.733,232.597 243.331 C 232.156 242.929,231.540 242.105,231.230 241.500 C 230.919 240.895,230.515 240.400,230.332 240.400 C 230.150 240.400,230.000 240.164,230.000 239.875 C 230.000 239.587,229.640 238.964,229.200 238.492 C 228.760 238.020,228.400 237.356,228.400 237.017 C 228.400 236.678,228.220 236.400,228.000 236.400 C 227.780 236.400,227.600 235.961,227.600 235.424 C 227.600 234.887,227.420 234.336,227.200 234.200 C 226.980 234.064,226.800 233.603,226.800 233.176 C 226.800 232.749,226.620 232.400,226.400 232.400 C 226.180 232.400,226.000 231.896,226.000 231.280 C 226.000 230.664,225.775 229.935,225.500 229.660 C 225.132 229.291,225.000 226.937,225.000 220.713 C 225.000 214.312,225.121 212.226,225.500 212.100 C 225.775 212.008,226.000 211.408,226.000 210.767 C 226.000 210.125,226.180 209.600,226.400 209.600 C 226.620 209.600,226.800 209.150,226.800 208.600 C 226.800 208.050,226.980 207.600,227.200 207.600 C 227.420 207.600,227.600 207.240,227.600 206.800 C 227.600 206.360,227.780 206.000,228.000 206.000 C 228.220 206.000,228.400 205.640,228.400 205.200 C 228.400 204.760,228.580 204.400,228.800 204.400 C 229.020 204.400,229.200 204.164,229.200 203.875 C 229.200 203.587,229.560 202.964,230.000 202.492 C 230.440 202.020,230.800 201.462,230.800 201.253 C 230.800 200.725,237.453 194.000,237.975 194.000 C 238.209 194.000,238.400 193.820,238.400 193.600 C 238.400 193.380,238.670 193.200,239.000 193.200 C 239.330 193.200,239.600 193.020,239.600 192.800 C 239.600 192.580,239.870 192.400,240.200 192.400 C 240.530 192.400,240.800 192.220,240.800 192.000 C 240.800 191.780,241.064 191.600,241.386 191.600 C 241.926 191.600,244.014 190.801,245.695 189.951 C 246.077 189.758,246.921 189.600,247.571 189.600 C 248.221 189.600,248.864 189.420,249.000 189.200 C 249.146 188.964,251.530 188.800,254.800 188.800 C 258.070 188.800,260.454 188.964,260.600 189.200 " stroke="none" fill="#040404" fill-rule="evenodd"></path><path id="path1" d="" stroke="none" fill="#080404" fill-rule="evenodd"></path><path id="path2" d="" stroke="none" fill="#080404" fill-rule="evenodd"></path><path id="path3" d="" stroke="none" fill="#080404" fill-rule="evenodd"></path><path id="path4" d="" stroke="none" fill="#080404" fill-rule="evenodd"></path></g></svg>