<svg id="svg" version="1.1" xmlns="http://www.w3.org/2000/svg" xmlns:xlink="http://www.w3.org/1999/xlink" width="400" height="400" viewBox="0, 0, 400,400"><g id="svgg"><path id="path0" d="M98.267 39.867 C 98.120 40.013,98.000 40.553,98.000 41.067 C 98.000 41.580,97.820 42.000,97.600 42.000 C 97.380 42.000,97.200 42.439,97.200 42.976 C 97.200 43.513,97.020 44.064,96.800 44.200 C 96.580 44.336,96.400 44.799,96.400 45.229 C 96.400 45.659,96.242 46.323,96.049 46.705 C 95.480 47.833,94.800 50.196,94.800 51.048 C 94.800 51.484,94.621 52.019,94.401 52.239 C 94.182 52.458,93.885 54.294,93.742 56.319 C 93.598 58.343,93.327 60.000,93.140 60.000 C 92.953 60.000,92.800 61.710,92.800 63.800 C 92.800 66.067,92.639 67.600,92.400 67.600 C 92.159 67.600,92.000 69.267,92.000 71.800 C 92.000 74.333,92.159 76.000,92.400 76.000 C 92.639 76.000,92.800 77.533,92.800 79.800 C 92.800 81.890,92.954 83.600,93.141 83.600 C 93.329 83.600,93.597 84.949,93.736 86.597 C 93.875 88.245,94.154 89.910,94.356 90.297 C 94.557 90.684,94.957 91.810,95.244 92.800 C 95.531 93.790,95.953 94.728,96.180 94.884 C 96.542 95.131,93.995 98.308,93.100 98.727 C 92.935 98.804,92.800 99.122,92.800 99.433 C 92.800 99.745,92.620 100.000,92.400 100.000 C 92.180 100.000,92.000 100.198,92.000 100.440 C 92.000 100.681,91.460 101.383,90.800 102.000 C 90.140 102.617,89.600 103.369,89.600 103.672 C 89.600 103.975,89.240 104.483,88.800 104.800 C 88.360 105.117,88.000 105.657,88.000 106.000 C 88.000 106.343,87.640 106.883,87.200 107.200 C 86.760 107.517,86.400 108.097,86.400 108.488 C 86.400 108.880,86.220 109.200,86.000 109.200 C 85.780 109.200,85.600 109.470,85.600 109.800 C 85.600 110.130,85.465 110.401,85.300 110.403 C 85.135 110.405,84.801 110.810,84.559 111.303 C 84.316 111.796,83.551 113.253,82.859 114.541 C 82.166 115.828,81.600 117.223,81.600 117.641 C 81.600 118.058,81.420 118.400,81.200 118.400 C 80.980 118.400,80.800 118.760,80.800 119.200 C 80.800 119.640,80.620 120.000,80.400 120.000 C 80.180 120.000,80.000 120.540,80.000 121.200 C 80.000 121.860,79.820 122.400,79.600 122.400 C 79.380 122.400,79.200 122.839,79.200 123.376 C 79.200 123.913,79.020 124.464,78.800 124.600 C 78.580 124.736,78.400 125.377,78.400 126.024 C 78.400 126.671,78.231 127.200,78.024 127.200 C 77.818 127.200,77.524 128.464,77.372 130.009 C 77.219 131.554,76.939 132.914,76.747 133.032 C 76.556 133.151,76.400 134.137,76.400 135.224 C 76.400 136.311,76.220 137.200,76.000 137.200 C 75.767 137.200,75.600 138.533,75.600 140.400 C 75.600 142.267,75.433 143.600,75.200 143.600 C 74.945 143.600,74.800 146.933,74.800 152.800 C 74.800 158.667,74.945 162.000,75.200 162.000 C 75.443 162.000,75.600 163.792,75.600 166.576 C 75.600 169.196,75.771 171.258,76.000 171.400 C 76.220 171.536,76.400 172.807,76.400 174.224 C 76.400 175.641,76.553 176.800,76.741 176.800 C 76.928 176.800,77.204 178.544,77.354 180.675 C 77.504 182.806,77.778 184.741,77.963 184.975 C 78.279 185.374,78.524 186.385,79.063 189.504 C 79.187 190.221,79.449 190.906,79.644 191.027 C 79.840 191.148,80.000 191.599,80.000 192.029 C 80.000 192.459,80.168 193.123,80.373 193.505 C 80.579 193.887,80.978 195.055,81.261 196.100 C 81.543 197.145,81.915 198.000,82.087 198.000 C 82.259 198.000,82.400 198.439,82.400 198.976 C 82.400 199.513,82.580 200.064,82.800 200.200 C 83.020 200.336,83.200 200.797,83.200 201.224 C 83.200 201.651,83.380 202.000,83.600 202.000 C 83.820 202.000,84.000 202.272,84.000 202.605 C 84.000 202.938,84.159 203.523,84.353 203.905 C 84.548 204.287,84.952 205.140,85.253 205.800 C 85.553 206.460,85.891 207.090,86.005 207.200 C 86.118 207.310,86.642 208.255,87.168 209.300 C 87.695 210.345,88.277 211.200,88.463 211.200 C 88.648 211.200,88.800 211.560,88.800 212.000 C 88.800 212.440,88.980 212.800,89.200 212.800 C 89.420 212.800,89.600 213.025,89.601 213.300 C 89.601 213.575,90.141 214.430,90.800 215.200 C 91.459 215.970,91.999 216.759,91.999 216.953 C 92.000 217.147,92.320 217.597,92.712 217.953 C 93.103 218.309,93.598 218.982,93.812 219.448 C 94.548 221.057,102.001 229.200,102.737 229.200 C 102.947 229.200,104.038 230.100,105.161 231.200 C 106.285 232.300,107.401 233.200,107.642 233.200 C 107.882 233.200,108.583 233.740,109.200 234.400 C 109.817 235.060,110.491 235.600,110.698 235.600 C 110.906 235.600,111.402 235.960,111.800 236.400 C 112.198 236.840,112.766 237.200,113.062 237.200 C 113.358 237.200,113.600 237.358,113.600 237.551 C 113.600 237.745,114.140 238.127,114.800 238.400 C 115.460 238.673,116.000 239.055,116.000 239.249 C 116.000 239.442,116.345 239.600,116.767 239.600 C 117.188 239.600,117.593 239.735,117.667 239.900 C 117.877 240.373,120.256 241.600,120.962 241.600 C 121.313 241.600,121.600 241.780,121.600 242.000 C 121.600 242.220,121.960 242.400,122.400 242.400 C 122.840 242.400,123.200 242.547,123.200 242.728 C 123.200 242.908,124.100 243.300,125.200 243.600 C 126.300 243.900,127.200 244.292,127.200 244.472 C 127.200 244.653,127.560 244.800,128.000 244.800 C 128.440 244.800,128.800 244.980,128.800 245.200 C 128.800 245.420,129.250 245.600,129.800 245.600 C 130.350 245.600,130.800 245.780,130.800 246.000 C 130.800 246.220,131.250 246.400,131.800 246.400 C 132.350 246.400,132.800 246.580,132.800 246.800 C 132.800 247.020,133.239 247.200,133.776 247.200 C 134.313 247.200,134.864 247.380,135.000 247.600 C 135.136 247.820,135.676 248.000,136.200 248.000 C 136.724 248.000,137.264 248.180,137.400 248.400 C 137.536 248.620,138.267 248.800,139.024 248.800 C 139.781 248.800,140.400 248.980,140.400 249.200 C 140.400 249.420,140.940 249.600,141.600 249.600 C 142.260 249.600,142.800 249.780,142.800 250.000 C 142.800 250.220,143.520 250.400,144.400 250.400 C 145.280 250.400,146.000 250.580,146.000 250.800 C 146.000 251.020,146.619 251.200,147.376 251.200 C 148.133 251.200,148.864 251.380,149.000 251.600 C 149.136 251.820,150.047 252.000,151.024 252.000 C 152.001 252.000,152.800 252.180,152.800 252.400 C 152.800 252.620,153.754 252.800,154.920 252.800 C 156.086 252.800,157.211 252.963,157.420 253.163 C 157.793 253.519,159.811 253.819,164.600 254.228 C 166.562 254.396,167.973 254.776,169.128 255.448 C 169.389 255.600,168.163 257.414,167.100 258.450 C 166.495 259.039,166.000 259.719,166.000 259.960 C 166.000 260.202,165.850 260.400,165.668 260.400 C 165.485 260.400,165.080 260.895,164.768 261.500 C 164.456 262.105,164.111 262.690,164.001 262.800 C 163.523 263.276,162.800 264.839,162.800 265.395 C 162.800 265.728,162.620 266.000,162.400 266.000 C 162.180 266.000,162.000 266.236,162.000 266.525 C 162.000 266.814,161.637 267.801,161.193 268.720 C 160.749 269.639,160.274 271.207,160.137 272.206 C 160.000 273.205,159.733 274.118,159.544 274.235 C 159.355 274.352,159.200 275.056,159.200 275.800 C 159.200 276.544,159.020 277.264,158.800 277.400 C 158.580 277.536,158.400 278.537,158.400 279.624 C 158.400 281.333,158.292 281.600,157.600 281.600 C 157.160 281.600,156.800 281.780,156.800 282.000 C 156.800 282.220,156.440 282.400,156.000 282.400 C 155.560 282.400,155.200 282.580,155.200 282.800 C 155.200 283.020,154.660 283.200,154.000 283.200 C 153.340 283.200,152.800 283.380,152.800 283.600 C 152.800 283.820,152.260 284.000,151.600 284.000 C 150.940 284.000,150.400 284.180,150.400 284.400 C 150.400 284.620,149.781 284.800,149.024 284.800 C 148.267 284.800,147.536 284.980,147.400 285.200 C 147.264 285.420,146.544 285.600,145.800 285.600 C 145.056 285.600,144.336 285.780,144.200 286.000 C 144.064 286.220,142.793 286.400,141.376 286.400 C 139.925 286.400,138.800 286.575,138.800 286.800 C 138.800 287.042,137.067 287.200,134.400 287.200 C 131.733 287.200,130.000 287.042,130.000 286.800 C 130.000 286.578,128.933 286.400,127.600 286.400 C 126.267 286.400,125.200 286.222,125.200 286.000 C 125.200 285.780,124.570 285.600,123.800 285.600 C 123.030 285.600,122.400 285.420,122.400 285.200 C 122.400 284.980,121.860 284.800,121.200 284.800 C 120.540 284.800,120.000 284.620,120.000 284.400 C 120.000 284.180,119.755 284.000,119.456 284.000 C 118.799 284.000,113.855 281.524,113.667 281.100 C 113.593 280.935,113.323 280.800,113.067 280.800 C 112.810 280.799,112.077 280.349,111.438 279.800 C 110.799 279.250,110.137 278.800,109.968 278.800 C 109.491 278.800,102.000 271.293,102.000 270.816 C 102.000 270.583,101.460 269.828,100.800 269.137 C 100.140 268.446,99.600 267.721,99.600 267.524 C 99.600 267.327,99.240 266.780,98.800 266.308 C 98.360 265.836,98.000 265.213,98.000 264.925 C 98.000 264.636,97.820 264.400,97.600 264.400 C 97.380 264.400,97.200 264.164,97.200 263.875 C 97.200 263.587,96.840 262.964,96.400 262.492 C 95.960 262.020,95.600 261.522,95.600 261.385 C 95.600 261.249,94.880 260.446,94.000 259.600 C 93.120 258.754,92.400 257.887,92.400 257.672 C 92.400 257.079,85.507 250.401,84.893 250.399 C 84.732 250.399,83.970 249.859,83.200 249.200 C 82.430 248.541,81.575 248.001,81.300 248.001 C 81.025 248.000,80.800 247.820,80.800 247.600 C 80.800 247.380,80.440 247.200,80.000 247.200 C 79.560 247.200,79.200 247.020,79.200 246.800 C 79.200 246.580,78.935 246.400,78.612 246.400 C 78.289 246.400,77.383 246.040,76.600 245.600 C 75.817 245.160,74.857 244.800,74.468 244.800 C 74.079 244.800,73.568 244.608,73.333 244.373 C 73.098 244.138,71.532 243.842,69.853 243.715 C 68.174 243.588,66.800 243.331,66.800 243.142 C 66.800 242.659,60.900 242.714,60.600 243.200 C 60.464 243.420,59.598 243.601,58.676 243.601 C 55.647 243.604,54.400 244.755,54.400 247.548 L 54.400 249.907 56.969 252.554 C 58.383 254.009,59.662 255.200,59.812 255.200 C 59.962 255.200,60.630 255.659,61.296 256.219 C 61.962 256.780,63.248 257.615,64.153 258.076 C 65.059 258.538,66.091 259.249,66.447 259.657 C 66.803 260.066,67.277 260.400,67.500 260.400 C 68.023 260.400,73.200 265.415,73.200 265.921 C 73.200 266.131,73.875 267.004,74.700 267.860 C 75.525 268.716,76.556 270.088,76.991 270.908 C 77.426 271.729,77.877 272.400,77.993 272.400 C 78.110 272.400,78.429 272.906,78.703 273.525 C 78.976 274.144,79.560 275.036,80.000 275.508 C 80.440 275.980,80.800 276.644,80.800 276.983 C 80.800 277.322,80.980 277.600,81.200 277.600 C 81.420 277.600,81.600 277.960,81.600 278.400 C 81.600 278.840,81.780 279.200,82.000 279.200 C 82.220 279.200,82.400 279.560,82.400 280.000 C 82.400 280.440,82.580 280.800,82.800 280.800 C 83.020 280.800,83.200 281.160,83.200 281.600 C 83.200 282.040,83.380 282.400,83.600 282.400 C 83.820 282.400,84.000 282.760,84.000 283.200 C 84.000 283.640,84.180 284.000,84.400 284.000 C 84.620 284.000,84.800 284.272,84.800 284.605 C 84.800 284.938,84.980 285.568,85.200 286.005 C 85.420 286.442,85.780 287.158,86.000 287.595 C 86.220 288.032,86.400 288.662,86.400 288.995 C 86.400 289.328,86.580 289.600,86.800 289.600 C 87.020 289.600,87.200 289.926,87.200 290.325 C 87.200 290.723,87.560 291.436,88.000 291.908 C 88.440 292.380,88.800 293.044,88.800 293.383 C 88.800 293.722,88.980 294.000,89.200 294.000 C 89.420 294.000,89.600 294.272,89.600 294.604 C 89.600 294.936,90.140 295.772,90.800 296.463 C 91.460 297.154,92.000 297.878,92.000 298.074 C 92.000 298.677,100.202 307.200,100.783 307.200 C 100.945 307.200,101.493 307.560,102.000 308.000 C 102.507 308.440,103.215 308.800,103.573 308.800 C 103.931 308.800,104.483 309.160,104.800 309.600 C 105.117 310.040,105.697 310.400,106.088 310.400 C 106.480 310.400,106.800 310.580,106.800 310.800 C 106.800 311.020,107.160 311.200,107.600 311.200 C 108.040 311.200,108.400 311.380,108.400 311.600 C 108.400 311.820,108.760 312.000,109.200 312.000 C 109.640 312.000,110.000 312.180,110.000 312.400 C 110.000 312.620,110.360 312.800,110.800 312.800 C 111.240 312.800,111.600 312.980,111.600 313.200 C 111.600 313.420,112.050 313.600,112.600 313.600 C 113.150 313.600,113.600 313.780,113.600 314.000 C 113.600 314.220,114.140 314.400,114.800 314.400 C 115.460 314.400,116.000 314.580,116.000 314.800 C 116.000 315.020,116.529 315.200,117.176 315.200 C 117.823 315.200,118.464 315.380,118.600 315.600 C 118.736 315.820,119.647 316.000,120.624 316.000 C 121.601 316.000,122.400 316.180,122.400 316.400 C 122.400 316.622,123.467 316.800,124.800 316.800 C 126.133 316.800,127.200 316.978,127.200 317.200 C 127.200 317.456,130.667 317.600,136.800 317.600 C 142.933 317.600,146.400 317.456,146.400 317.200 C 146.400 316.969,147.659 316.800,149.376 316.800 C 151.013 316.800,152.464 316.620,152.600 316.400 C 152.736 316.180,153.636 316.000,154.600 316.000 C 155.564 316.000,156.464 315.820,156.600 315.600 C 157.469 314.194,157.600 316.558,157.600 333.600 C 157.600 345.600,157.461 352.000,157.200 352.000 C 156.980 352.000,156.800 352.455,156.800 353.011 C 156.800 354.140,153.642 357.600,152.611 357.600 C 152.275 357.600,152.000 357.780,152.000 358.000 C 152.000 358.220,151.460 358.400,150.800 358.400 C 150.140 358.400,149.600 358.580,149.600 358.800 C 149.600 359.031,148.333 359.200,146.600 359.200 C 144.197 359.200,143.600 359.320,143.600 359.801 C 143.600 360.536,276.716 360.535,276.900 359.800 C 276.956 359.578,275.977 359.347,274.700 359.280 C 273.435 359.214,272.400 358.989,272.400 358.780 C 272.400 358.571,271.680 358.400,270.800 358.400 C 269.920 358.400,269.200 358.220,269.200 358.000 C 269.200 357.780,268.840 357.600,268.400 357.600 C 267.960 357.600,267.600 357.420,267.600 357.200 C 267.600 356.980,267.322 356.800,266.982 356.800 C 266.182 356.800,264.400 355.018,264.400 354.218 C 264.400 353.878,264.220 353.600,264.000 353.600 C 263.736 353.600,263.600 341.941,263.600 319.424 C 263.600 297.071,263.462 285.162,263.200 285.000 C 262.980 284.864,262.800 283.604,262.800 282.200 C 262.800 280.796,262.620 279.536,262.400 279.400 C 262.180 279.264,262.000 278.353,262.000 277.376 C 262.000 276.399,261.820 275.600,261.600 275.600 C 261.380 275.600,261.200 274.981,261.200 274.224 C 261.200 273.467,261.020 272.736,260.800 272.600 C 260.580 272.464,260.400 271.924,260.400 271.400 C 260.400 270.876,260.220 270.336,260.000 270.200 C 259.780 270.064,259.600 269.603,259.600 269.176 C 259.600 268.749,259.420 268.400,259.200 268.400 C 258.980 268.400,258.799 267.995,258.798 267.500 C 258.796 266.211,256.383 261.551,255.100 260.357 C 254.715 259.999,254.400 259.524,254.400 259.301 C 254.400 259.079,253.680 258.155,252.800 257.248 C 250.403 254.778,250.696 254.400,255.009 254.400 C 256.408 254.400,257.664 254.220,257.800 254.000 C 257.936 253.780,259.016 253.600,260.200 253.600 C 261.384 253.600,262.464 253.420,262.600 253.200 C 262.736 252.980,263.726 252.800,264.800 252.800 C 265.874 252.800,266.864 252.620,267.000 252.400 C 267.136 252.180,268.047 252.000,269.024 252.000 C 270.001 252.000,270.800 251.820,270.800 251.600 C 270.800 251.380,271.610 251.200,272.600 251.200 C 273.590 251.200,274.400 251.020,274.400 250.800 C 274.400 250.580,275.019 250.400,275.776 250.400 C 276.533 250.400,277.264 250.220,277.400 250.000 C 277.536 249.780,278.177 249.600,278.824 249.600 C 279.471 249.600,280.000 249.420,280.000 249.200 C 280.000 248.980,280.619 248.800,281.376 248.800 C 282.133 248.800,282.864 248.620,283.000 248.400 C 283.136 248.180,283.777 248.000,284.424 248.000 C 285.071 248.000,285.600 247.820,285.600 247.600 C 285.600 247.380,286.050 247.200,286.600 247.200 C 287.150 247.200,287.600 247.020,287.600 246.800 C 287.600 246.580,288.050 246.400,288.600 246.400 C 289.150 246.400,289.600 246.220,289.600 246.000 C 289.600 245.780,290.050 245.600,290.600 245.600 C 291.150 245.600,291.600 245.420,291.600 245.200 C 291.600 244.980,291.960 244.800,292.400 244.800 C 292.840 244.800,293.200 244.620,293.200 244.400 C 293.200 244.180,293.740 244.000,294.400 244.000 C 295.060 244.000,295.600 243.820,295.600 243.600 C 295.600 243.380,295.960 243.200,296.400 243.200 C 296.840 243.200,297.200 243.020,297.200 242.800 C 297.200 242.580,297.560 242.400,298.000 242.400 C 298.440 242.400,298.800 242.243,298.800 242.050 C 298.800 241.858,299.334 241.593,299.986 241.463 C 300.639 241.332,302.367 240.500,303.827 239.613 C 305.287 238.726,306.643 238.000,306.841 238.000 C 307.038 238.000,307.200 237.820,307.200 237.600 C 307.200 237.380,307.470 237.200,307.800 237.200 C 308.130 237.200,308.400 237.020,308.400 236.800 C 308.400 236.580,308.630 236.400,308.912 236.400 C 309.193 236.400,309.683 236.040,310.000 235.600 C 310.317 235.160,310.825 234.800,311.128 234.800 C 311.431 234.800,312.183 234.260,312.800 233.600 C 313.417 232.940,314.095 232.400,314.308 232.400 C 314.891 232.400,325.200 222.267,325.200 221.695 C 325.200 221.423,325.380 221.200,325.600 221.200 C 325.820 221.200,326.000 221.002,326.000 220.760 C 326.000 220.519,326.540 219.817,327.200 219.200 C 327.860 218.583,328.400 217.831,328.400 217.528 C 328.400 217.225,328.760 216.717,329.200 216.400 C 329.640 216.083,330.000 215.543,330.000 215.200 C 330.000 214.857,330.360 214.317,330.800 214.000 C 331.240 213.683,331.600 213.103,331.600 212.712 C 331.600 212.320,331.780 212.000,332.000 212.000 C 332.220 212.000,332.400 211.764,332.400 211.475 C 332.400 211.187,332.760 210.564,333.200 210.092 C 333.640 209.620,334.000 208.956,334.000 208.617 C 334.000 208.278,334.180 208.000,334.400 208.000 C 334.620 208.000,334.800 207.640,334.800 207.200 C 334.800 206.760,334.980 206.400,335.200 206.400 C 335.420 206.400,335.600 206.040,335.600 205.600 C 335.600 205.160,335.780 204.800,336.000 204.800 C 336.220 204.800,336.400 204.451,336.400 204.024 C 336.400 203.597,336.580 203.136,336.800 203.000 C 337.020 202.864,337.200 202.403,337.200 201.976 C 337.200 201.549,337.347 201.200,337.528 201.200 C 337.708 201.200,338.100 200.300,338.400 199.200 C 338.700 198.100,339.092 197.200,339.272 197.200 C 339.453 197.200,339.600 196.671,339.600 196.024 C 339.600 195.377,339.780 194.736,340.000 194.600 C 340.220 194.464,340.400 193.924,340.400 193.400 C 340.400 192.876,340.572 192.341,340.782 192.211 C 340.991 192.082,341.285 190.897,341.434 189.579 C 341.583 188.261,341.862 187.086,342.053 186.967 C 342.244 186.849,342.400 185.953,342.400 184.976 C 342.400 183.999,342.580 183.200,342.800 183.200 C 343.020 183.200,343.200 182.401,343.200 181.424 C 343.200 180.447,343.380 179.536,343.600 179.400 C 343.820 179.264,344.000 178.083,344.000 176.776 C 344.000 175.459,344.178 174.400,344.400 174.400 C 344.633 174.400,344.800 173.075,344.800 171.224 C 344.800 169.477,344.980 167.936,345.200 167.800 C 345.454 167.643,345.600 162.463,345.600 153.576 C 345.600 144.525,345.459 139.600,345.200 139.600 C 344.978 139.600,344.800 138.533,344.800 137.200 C 344.800 135.867,344.622 134.800,344.400 134.800 C 344.180 134.800,344.000 134.001,344.000 133.024 C 344.000 132.047,343.820 131.136,343.600 131.000 C 343.380 130.864,343.200 130.133,343.200 129.376 C 343.200 128.619,343.020 128.000,342.800 128.000 C 342.580 128.000,342.400 127.460,342.400 126.800 C 342.400 126.140,342.220 125.600,342.000 125.600 C 341.780 125.600,341.600 125.204,341.600 124.720 C 341.600 123.487,340.288 119.200,339.911 119.200 C 339.740 119.200,339.600 118.928,339.600 118.595 C 339.600 118.262,339.440 117.677,339.244 117.295 C 339.048 116.913,338.465 115.700,337.949 114.600 C 337.433 113.500,336.918 112.510,336.805 112.400 C 336.691 112.290,336.344 111.705,336.032 111.100 C 335.720 110.495,335.315 110.000,335.132 110.000 C 334.950 110.000,334.800 109.640,334.800 109.200 C 334.800 108.760,334.620 108.400,334.400 108.400 C 334.180 108.400,334.000 108.164,334.000 107.875 C 334.000 107.587,333.640 106.964,333.200 106.492 C 332.760 106.020,332.400 105.428,332.400 105.177 C 332.400 104.926,331.860 104.217,331.200 103.600 C 330.540 102.983,330.000 102.263,330.000 102.000 C 330.000 101.737,329.460 101.017,328.800 100.400 C 328.140 99.783,327.600 99.116,327.600 98.918 C 327.600 98.719,326.963 97.861,326.185 97.012 C 324.787 95.486,324.454 92.130,325.655 91.667 C 325.845 91.593,326.000 91.019,326.000 90.390 C 326.000 89.762,326.180 89.136,326.400 89.000 C 326.620 88.864,326.800 88.054,326.800 87.200 C 326.800 86.346,326.980 85.536,327.200 85.400 C 327.420 85.264,327.600 83.813,327.600 82.176 C 327.600 80.459,327.769 79.200,328.000 79.200 C 328.542 79.200,328.542 64.535,328.000 64.200 C 327.780 64.064,327.600 62.703,327.600 61.176 C 327.600 59.592,327.428 58.400,327.200 58.400 C 326.980 58.400,326.800 57.500,326.800 56.400 C 326.800 55.300,326.620 54.400,326.400 54.400 C 326.180 54.400,326.000 53.691,326.000 52.824 C 326.000 51.957,325.844 51.151,325.653 51.033 C 325.462 50.914,325.183 49.739,325.034 48.421 C 324.885 47.103,324.591 45.918,324.382 45.789 C 324.172 45.659,324.000 45.113,324.000 44.576 C 324.000 44.039,323.820 43.600,323.600 43.600 C 323.380 43.600,323.200 43.161,323.200 42.624 C 323.200 42.087,323.020 41.536,322.800 41.400 C 322.580 41.264,322.400 40.803,322.400 40.376 C 322.400 39.499,310.332 39.139,309.800 40.000 C 309.664 40.220,308.764 40.400,307.800 40.400 C 306.836 40.400,305.936 40.580,305.800 40.800 C 305.664 41.020,304.933 41.200,304.176 41.200 C 303.419 41.200,302.800 41.380,302.800 41.600 C 302.800 41.820,302.181 42.000,301.424 42.000 C 300.667 42.000,299.936 42.180,299.800 42.400 C 299.664 42.620,299.124 42.800,298.600 42.800 C 298.076 42.800,297.542 42.970,297.414 43.177 C 297.286 43.384,296.376 43.675,295.391 43.822 C 294.406 43.970,293.600 44.250,293.600 44.445 C 293.600 44.640,293.321 44.800,292.981 44.800 C 292.640 44.800,291.616 45.160,290.706 45.600 C 289.795 46.040,288.814 46.400,288.525 46.400 C 288.236 46.400,288.000 46.580,288.000 46.800 C 288.000 47.020,287.640 47.200,287.200 47.200 C 286.760 47.200,286.400 47.380,286.400 47.600 C 286.400 47.820,286.040 48.000,285.600 48.000 C 285.160 48.000,284.800 48.180,284.800 48.400 C 284.800 48.620,284.440 48.800,284.000 48.800 C 283.560 48.800,283.200 48.980,283.200 49.200 C 283.200 49.420,282.840 49.600,282.400 49.600 C 281.960 49.600,281.600 49.780,281.600 50.000 C 281.600 50.220,281.240 50.400,280.800 50.400 C 280.360 50.400,280.000 50.546,280.000 50.725 C 280.000 50.904,279.370 51.298,278.600 51.600 C 277.830 51.902,277.200 52.296,277.200 52.475 C 277.200 52.654,276.880 52.800,276.488 52.800 C 276.097 52.800,275.517 53.160,275.200 53.600 C 274.883 54.040,274.303 54.400,273.912 54.400 C 273.520 54.400,273.200 54.580,273.200 54.800 C 273.200 55.020,272.840 55.200,272.400 55.200 C 271.960 55.200,271.600 55.380,271.600 55.600 C 271.600 55.820,271.364 56.000,271.075 56.000 C 270.787 56.000,270.164 56.360,269.692 56.800 C 269.220 57.240,268.596 57.600,268.305 57.600 C 268.014 57.600,267.517 57.960,267.200 58.400 C 266.883 58.840,266.303 59.200,265.912 59.200 C 265.520 59.200,265.200 59.362,265.200 59.561 C 265.200 60.626,258.423 60.574,257.363 59.500 C 257.200 59.335,256.287 59.200,255.333 59.200 C 254.380 59.200,253.600 59.020,253.600 58.800 C 253.600 58.580,252.801 58.400,251.824 58.400 C 250.847 58.400,249.936 58.220,249.800 58.000 C 249.664 57.780,248.663 57.600,247.576 57.600 C 246.489 57.600,245.600 57.420,245.600 57.200 C 245.600 56.974,244.467 56.800,243.000 56.800 C 241.533 56.800,240.400 56.626,240.400 56.400 C 240.400 56.172,239.208 56.000,237.624 56.000 C 236.097 56.000,234.736 55.820,234.600 55.600 C 234.461 55.375,232.529 55.200,230.176 55.200 C 227.659 55.200,226.000 55.041,226.000 54.800 C 226.000 54.251,194.939 54.251,194.600 54.800 C 194.462 55.023,192.596 55.200,190.376 55.200 C 187.992 55.200,186.400 55.360,186.400 55.600 C 186.400 55.831,185.133 56.000,183.400 56.000 C 181.667 56.000,180.400 56.169,180.400 56.400 C 180.400 56.622,179.333 56.800,178.000 56.800 C 176.667 56.800,175.600 56.978,175.600 57.200 C 175.600 57.420,174.621 57.600,173.424 57.600 C 172.227 57.600,171.136 57.780,171.000 58.000 C 170.864 58.220,169.964 58.400,169.000 58.400 C 168.036 58.400,167.136 58.580,167.000 58.800 C 166.864 59.020,166.043 59.200,165.176 59.200 C 164.309 59.200,163.600 59.351,163.600 59.535 C 163.600 60.421,157.442 60.675,155.902 59.853 C 155.076 59.412,154.400 58.905,154.400 58.726 C 154.400 58.547,154.080 58.400,153.688 58.400 C 153.297 58.400,152.717 58.040,152.400 57.600 C 152.083 57.160,151.503 56.800,151.112 56.800 C 150.720 56.800,150.400 56.620,150.400 56.400 C 150.400 56.180,150.080 56.000,149.688 56.000 C 149.297 56.000,148.717 55.640,148.400 55.200 C 148.083 54.760,147.503 54.400,147.112 54.400 C 146.720 54.400,146.400 54.220,146.400 54.000 C 146.400 53.780,146.122 53.600,145.783 53.600 C 145.444 53.600,144.780 53.240,144.308 52.800 C 143.836 52.360,143.213 52.000,142.925 52.000 C 142.636 52.000,142.400 51.820,142.400 51.600 C 142.400 51.380,142.055 51.200,141.633 51.200 C 141.212 51.200,140.807 51.057,140.733 50.882 C 140.539 50.418,132.215 46.400,131.449 46.400 C 131.092 46.400,130.800 46.220,130.800 46.000 C 130.800 45.780,130.564 45.600,130.275 45.600 C 129.986 45.600,129.016 45.245,128.119 44.812 C 127.221 44.378,125.747 43.905,124.844 43.761 C 123.940 43.616,123.200 43.341,123.200 43.149 C 123.200 42.957,122.660 42.800,122.000 42.800 C 121.340 42.800,120.800 42.620,120.800 42.400 C 120.800 42.180,120.260 42.000,119.600 42.000 C 118.940 42.000,118.400 41.820,118.400 41.600 C 118.400 41.380,117.680 41.200,116.800 41.200 C 115.920 41.200,115.200 41.020,115.200 40.800 C 115.200 40.580,114.300 40.400,113.200 40.400 C 112.100 40.400,111.200 40.220,111.200 40.000 C 111.200 39.552,98.710 39.423,98.267 39.867 " stroke="none" fill="#242424" fill-rule="evenodd"></path><path id="path1" d="" stroke="none" fill="#282424" fill-rule="evenodd"></path><path id="path2" d="" stroke="none" fill="#282424" fill-rule="evenodd"></path><path id="path3" d="" stroke="none" fill="#282424" fill-rule="evenodd"></path><path id="path4" d="" stroke="none" fill="#282424" fill-rule="evenodd"></path></g></svg>